<svg width="1440" height="147" viewBox="0 0 1440 147" fill="none" xmlns="http://www.w3.org/2000/svg">
<path d="M0 0H1440V141H0V0Z" fill="#B88B4A"/>
<path d="M0 141V147H12V141V135H0V141ZM36 141V147H60V141V135H36V141ZM84 141V147H108V141V135H84V141ZM132 141V147H156V141V135H132V141ZM180 141V147H204V141V135H180V141ZM228 141V147H252V141V135H228V141ZM276 141V147H300V141V135H276V141ZM324 141V147H348V141V135H324V141ZM372 141V147H396V141V135H372V141ZM420 141V147H444V141V135H420V141ZM468 141V147H492V141V135H468V141ZM516 141V147H540V141V135H516V141ZM564 141V147H588V141V135H564V141ZM612 141V147H636V141V135H612V141ZM660 141V147H684V141V135H660V141ZM708 141V147H732V141V135H708V141ZM756 141V147H780V141V135H756V141ZM804 141V147H828V141V135H804V141ZM852 141V147H876V141V135H852V141ZM900 141V147H924V141V135H900V141ZM948 141V147H972V141V135H948V141ZM996 141V147H1020V141V135H996V141ZM1044 141V147H1068V141V135H1044V141ZM1092 141V147H1116V141V135H1092V141ZM1140 141V147H1164V141V135H1140V141ZM1188 141V147H1212V141V135H1188V141ZM1236 141V147H1260V141V135H1236V141ZM1284 141V147H1308V141V135H1284V141ZM1332 141V147H1356V141V135H1332V141ZM1380 141V147H1404V141V135H1380V141ZM1428 141V147H1440V141V135H1428V141Z" fill="#533E2D"/>
</svg>
