<svg width="1423" height="8" viewBox="0 0 1423 8" fill="none" xmlns="http://www.w3.org/2000/svg">
<g clip-path="url(#clip0_252_57)">
<path d="M-31 4V10H-19V4V-2H-31V4ZM5 4V10H29V4V-2H5V4ZM53 4V10H77V4V-2H53V4ZM101 4V10H125V4V-2H101V4ZM149 4V10H173V4V-2H149V4ZM197 4V10H221V4V-2H197V4ZM245 4V10H269V4V-2H245V4ZM293 4V10H317V4V-2H293V4ZM341 4V10H365V4V-2H341V4ZM389 4V10H413V4V-2H389V4ZM437 4V10H461V4V-2H437V4ZM485 4V10H509V4V-2H485V4ZM533 4V10H557V4V-2H533V4ZM581 4V10H605V4V-2H581V4ZM629 4V10H653V4V-2H629V4ZM677 4V10H701V4V-2H677V4ZM725 4V10H749V4V-2H725V4ZM773 4V10H797V4V-2H773V4ZM821 4V10H845V4V-2H821V4ZM869 4V10H893V4V-2H869V4ZM917 4V10H941V4V-2H917V4ZM965 4V10H989V4V-2H965V4ZM1013 4V10H1037V4V-2H1013V4ZM1061 4V10H1085V4V-2H1061V4ZM1109 4V10H1133V4V-2H1109V4ZM1157 4V10H1181V4V-2H1157V4ZM1205 4V10H1229V4V-2H1205V4ZM1253 4V10H1277V4V-2H1253V4ZM1301 4V10H1325V4V-2H1301V4ZM1349 4V10H1373V4V-2H1349V4ZM1397 4V10H1409V4V-2H1397V4Z" fill="#533E2D"/>
</g>
<defs>
<clipPath id="clip0_252_57">
<rect width="1423" height="8" fill="white"/>
</clipPath>
</defs>
</svg>
