<svg width="3006" height="12" viewBox="0 0 3006 12" fill="none" xmlns="http://www.w3.org/2000/svg">
<path d="M0 6V12H11.9265V6V0H0V6ZM35.7796 6V12H59.6326V6V0H35.7796V6ZM83.4857 6V12H107.339V6V0H83.4857V6ZM131.192 6V12H155.045V6V0H131.192V6ZM178.898 6V12H202.751V6V0H178.898V6ZM226.604 6V12H250.457V6V0H226.604V6ZM274.31 6V12H298.163V6V0H274.31V6ZM322.016 6V12H345.869V6V0H322.016V6ZM369.722 6V12H393.575V6V0H369.722V6ZM417.428 6V12H441.281V6V0H417.428V6ZM465.134 6V12H488.988V6V0H465.134V6ZM512.841 6V12H536.694V6V0H512.841V6ZM560.547 6V12H584.4V6V0H560.547V6ZM608.253 6V12H632.106V6V0H608.253V6ZM655.959 6V12H679.812V6V0H655.959V6ZM703.665 6V12H727.518V6V0H703.665V6ZM751.371 6V12H775.224V6V0H751.371V6ZM799.077 6V12H822.93V6V0H799.077V6ZM846.783 6V12H870.636V6V0H846.783V6ZM894.489 6V12H918.342V6V0H894.489V6ZM942.195 6V12H966.048V6V0H942.195V6ZM989.901 6V12H1013.75V6V0H989.901V6ZM1037.61 6V12H1061.46V6V0H1037.61V6ZM1085.31 6V12H1109.17V6V0H1085.31V6ZM1133.02 6V12H1156.87V6V0H1133.02V6ZM1180.73 6V12H1204.58V6V0H1180.73V6ZM1228.43 6V12H1252.28V6V0H1228.43V6ZM1276.14 6V12H1299.99V6V0H1276.14V6ZM1323.84 6V12H1347.7V6V0H1323.84V6ZM1371.55 6V12H1395.4V6V0H1371.55V6ZM1419.26 6V12H1443.11V6V0H1419.26V6ZM1466.96 6V12H1490.81V6V0H1466.96V6ZM1514.67 6V12H1538.52V6V0H1514.67V6ZM1562.37 6V12H1586.23V6V0H1562.37V6ZM1610.08 6V12H1633.93V6V0H1610.08V6ZM1657.79 6V12H1681.64V6V0H1657.79V6ZM1705.49 6V12H1729.35V6V0H1705.49V6ZM1753.2 6V12H1777.05V6V0H1753.2V6ZM1800.9 6V12H1824.76V6V0H1800.9V6ZM1848.61 6V12H1872.46V6V0H1848.61V6ZM1896.32 6V12H1920.17V6V0H1896.32V6ZM1944.02 6V12H1967.88V6V0H1944.02V6ZM1991.73 6V12H2015.58V6V0H1991.73V6ZM2039.43 6V12H2063.29V6V0H2039.43V6ZM2087.14 6V12H2110.99V6V0H2087.14V6ZM2134.85 6V12H2158.7V6V0H2134.85V6ZM2182.55 6V12H2206.41V6V0H2182.55V6ZM2230.26 6V12H2254.11V6V0H2230.26V6ZM2277.96 6V12H2301.82V6V0H2277.96V6ZM2325.67 6V12H2349.52V6V0H2325.67V6ZM2373.38 6V12H2397.23V6V0H2373.38V6ZM2421.08 6V12H2444.94V6V0H2421.08V6ZM2468.79 6V12H2492.64V6V0H2468.79V6ZM2516.49 6V12H2540.35V6V0H2516.49V6ZM2564.2 6V12H2588.05V6V0H2564.2V6ZM2611.91 6V12H2635.76V6V0H2611.91V6ZM2659.61 6V12H2683.47V6V0H2659.61V6ZM2707.32 6V12H2731.17V6V0H2707.32V6ZM2755.03 6V12H2778.88V6V0H2755.03V6ZM2802.73 6V12H2826.58V6V0H2802.73V6ZM2850.44 6V12H2874.29V6V0H2850.44V6ZM2898.14 6V12H2922V6V0H2898.14V6ZM2945.85 6V12H2969.7V6V0H2945.85V6ZM2993.56 6V12H3005.48V6V0H2993.56V6Z" fill="#533E2D"/>
</svg>
