<svg width="1423" height="8" viewBox="0 0 1423 8" fill="none" xmlns="http://www.w3.org/2000/svg">
<g clip-path="url(#clip0_252_57)">
<path d="M-17 2.13611V8.13611H-5V2.13611V-3.86389H-17V2.13611ZM19 2.13611V8.13611H43V2.13611V-3.86389H19V2.13611ZM67 2.13611V8.13611H91V2.13611V-3.86389H67V2.13611ZM115 2.13611V8.13611H139V2.13611V-3.86389H115V2.13611ZM163 2.13611V8.13611H187V2.13611V-3.86389H163V2.13611ZM211 2.13611V8.13611H235V2.13611V-3.86389H211V2.13611ZM259 2.13611V8.13611H283V2.13611V-3.86389H259V2.13611ZM307 2.13611V8.13611H331V2.13611V-3.86389H307V2.13611ZM355 2.13611V8.13611H379V2.13611V-3.86389H355V2.13611ZM403 2.13611V8.13611H427V2.13611V-3.86389H403V2.13611ZM451 2.13611V8.13611H475V2.13611V-3.86389H451V2.13611ZM499 2.13611V8.13611H523V2.13611V-3.86389H499V2.13611ZM547 2.13611V8.13611H571V2.13611V-3.86389H547V2.13611ZM595 2.13611V8.13611H619V2.13611V-3.86389H595V2.13611ZM643 2.13611V8.13611H667V2.13611V-3.86389H643V2.13611ZM691 2.13611V8.13611H715V2.13611V-3.86389H691V2.13611ZM739 2.13611V8.13611H763V2.13611V-3.86389H739V2.13611ZM787 2.13611V8.13611H811V2.13611V-3.86389H787V2.13611ZM835 2.13611V8.13611H859V2.13611V-3.86389H835V2.13611ZM883 2.13611V8.13611H907V2.13611V-3.86389H883V2.13611ZM931 2.13611V8.13611H955V2.13611V-3.86389H931V2.13611ZM979 2.13611V8.13611H1003V2.13611V-3.86389H979V2.13611ZM1027 2.13611V8.13611H1051V2.13611V-3.86389H1027V2.13611ZM1075 2.13611V8.13611H1099V2.13611V-3.86389H1075V2.13611ZM1123 2.13611V8.13611H1147V2.13611V-3.86389H1123V2.13611ZM1171 2.13611V8.13611H1195V2.13611V-3.86389H1171V2.13611ZM1219 2.13611V8.13611H1243V2.13611V-3.86389H1219V2.13611ZM1267 2.13611V8.13611H1291V2.13611V-3.86389H1267V2.13611ZM1315 2.13611V8.13611H1339V2.13611V-3.86389H1315V2.13611ZM1363 2.13611V8.13611H1387V2.13611V-3.86389H1363V2.13611ZM1411 2.13611V8.13611H1423V2.13611V-3.86389H1411V2.13611Z" fill="#533E2D"/>
<path d="M-1403.67 2.13611V8.13611H-1391.67V2.13611V-3.86389H-1403.67V2.13611ZM-1367.67 2.13611V8.13611H-1343.67V2.13611V-3.86389H-1367.67V2.13611ZM-1319.67 2.13611V8.13611H-1295.67V2.13611V-3.86389H-1319.67V2.13611ZM-1271.67 2.13611V8.13611H-1247.67V2.13611V-3.86389H-1271.67V2.13611ZM-1223.67 2.13611V8.13611H-1199.67V2.13611V-3.86389H-1223.67V2.13611ZM-1175.67 2.13611V8.13611H-1151.67V2.13611V-3.86389H-1175.67V2.13611ZM-1127.67 2.13611V8.13611H-1103.67V2.13611V-3.86389H-1127.67V2.13611ZM-1079.67 2.13611V8.13611H-1055.67V2.13611V-3.86389H-1079.67V2.13611ZM-1031.67 2.13611V8.13611H-1007.67V2.13611V-3.86389H-1031.67V2.13611ZM-983.666 2.13611V8.13611H-959.666V2.13611V-3.86389H-983.666V2.13611ZM-935.666 2.13611V8.13611H-911.666V2.13611V-3.86389H-935.666V2.13611ZM-887.666 2.13611V8.13611H-863.666V2.13611V-3.86389H-887.666V2.13611ZM-839.666 2.13611V8.13611H-815.666V2.13611V-3.86389H-839.666V2.13611ZM-791.666 2.13611V8.13611H-767.666V2.13611V-3.86389H-791.666V2.13611ZM-743.666 2.13611V8.13611H-719.666V2.13611V-3.86389H-743.666V2.13611ZM-695.666 2.13611V8.13611H-671.666V2.13611V-3.86389H-695.666V2.13611ZM-647.666 2.13611V8.13611H-623.666V2.13611V-3.86389H-647.666V2.13611ZM-599.666 2.13611V8.13611H-575.666V2.13611V-3.86389H-599.666V2.13611ZM-551.666 2.13611V8.13611H-527.666V2.13611V-3.86389H-551.666V2.13611ZM-503.666 2.13611V8.13611H-479.666V2.13611V-3.86389H-503.666V2.13611ZM-455.666 2.13611V8.13611H-431.666V2.13611V-3.86389H-455.666V2.13611ZM-407.666 2.13611V8.13611H-383.666V2.13611V-3.86389H-407.666V2.13611ZM-359.666 2.13611V8.13611H-335.666V2.13611V-3.86389H-359.666V2.13611ZM-311.666 2.13611V8.13611H-287.666V2.13611V-3.86389H-311.666V2.13611ZM-263.666 2.13611V8.13611H-239.666V2.13611V-3.86389H-263.666V2.13611ZM-215.666 2.13611V8.13611H-191.666V2.13611V-3.86389H-215.666V2.13611ZM-167.666 2.13611V8.13611H-143.666V2.13611V-3.86389H-167.666V2.13611ZM-119.666 2.13611V8.13611H-95.666V2.13611V-3.86389H-119.666V2.13611ZM-71.666 2.13611V8.13611H-47.666V2.13611V-3.86389H-71.666V2.13611ZM-23.666 2.13611V8.13611H0.334019V2.13611V-3.86389H-23.666V2.13611ZM24.334 2.13611V8.13611H36.334V2.13611V-3.86389H24.334V2.13611Z" fill="#533E2D"/>
</g>
<defs>
<clipPath id="clip0_252_57">
<rect width="1423" height="8" fill="white"/>
</clipPath>
</defs>
</svg>
