<svg width="38" height="38" viewBox="0 0 38 38" fill="none" xmlns="http://www.w3.org/2000/svg">
<g clip-path="url(#clip0_97_78)">
<path d="M0.509803 18.7763C0.509803 15.295 0.519156 11.8132 0.503856 8.33269C0.499641 7.34332 0.413628 6.35456 0.383185 5.36504C0.303253 2.75196 2.09409 0.834107 4.87456 0.779342C10.6701 0.665118 16.4651 0.415995 22.2641 0.613931C22.8778 0.634898 23.494 0.591866 24.1073 0.618936C24.4788 0.633663 24.8474 0.69432 25.2043 0.799512C25.3606 0.844877 25.4983 0.939515 25.5969 1.0694C25.6955 1.19929 25.7496 1.3575 25.7515 1.52067C25.7746 1.87477 25.6474 2.18883 25.33 2.32121C24.9381 2.48256 24.5279 2.59434 24.1087 2.65402C23.736 2.68942 23.3612 2.69014 22.9885 2.6562C18.154 2.4484 13.3173 2.47281 8.48136 2.56028C7.17558 2.59057 5.87254 2.69442 4.5784 2.87135C3.76846 2.9779 3.02735 3.34406 2.71356 4.19949C2.57253 4.54353 2.4961 4.9107 2.48811 5.28256C2.52495 6.69925 2.61116 8.11473 2.68063 9.53064C2.7042 10.0119 2.75071 10.4928 2.75602 10.9741C2.80504 15.3656 2.87092 19.7572 2.88294 24.1491C2.89044 26.8801 2.79956 29.6112 2.78426 32.3425C2.80256 33.0636 2.8599 33.7832 2.95601 34.4981C3.00596 34.9813 3.27386 35.2767 3.77766 35.3274C3.9369 35.343 4.09441 35.3978 4.25271 35.398C5.74676 35.3991 7.24128 35.4164 8.7347 35.3823C10.6308 35.3387 12.5256 35.2052 14.4216 35.192C19.0444 35.1608 23.6675 35.1645 28.2903 35.1777C29.5987 35.1814 30.9068 35.2684 32.2153 35.311C32.6986 35.3432 33.1788 35.2108 33.5777 34.9354C33.9767 34.6599 34.2712 34.2573 34.4134 33.7932C34.4709 33.6179 34.4993 33.4344 34.4979 33.2501C34.4801 31.8331 34.3611 30.4112 34.4423 29.0006C34.7242 24.1042 34.7222 19.2045 34.7206 14.304C34.7206 13.7953 34.7278 13.2859 34.7575 12.7784C34.7706 12.4841 34.8173 12.1924 34.8968 11.9089C34.9383 11.7515 35.0277 11.611 35.1528 11.5071C35.2777 11.4031 35.4319 11.3408 35.594 11.3288C35.9701 11.285 36.3163 11.3814 36.4771 11.7356C36.6384 12.071 36.7403 12.4318 36.7786 12.8022C36.8968 14.4302 36.9786 16.0612 37.0691 17.6913C37.3528 22.8079 37.0632 27.9177 36.913 33.0291C36.8863 33.5633 36.7872 34.0914 36.6183 34.5989C36.4646 35.1284 36.1891 35.6145 35.8139 36.0181C35.4389 36.4216 34.9745 36.7313 34.4584 36.9223C33.4609 37.3107 32.399 37.5052 31.3291 37.4955C27.8828 37.4867 24.4364 37.4977 20.9901 37.4934C19.6809 37.4919 18.3712 37.4394 17.0627 37.4621C13.9648 37.5174 10.8676 37.6111 7.76991 37.6749C6.51472 37.7008 5.25734 37.7299 4.00356 37.6854C2.01071 37.6147 0.746462 36.298 0.720234 34.2762C0.652947 29.1098 0.608444 23.9431 0.55474 18.7766L0.509803 18.7763Z" fill="#FFFD77"/>
<path d="M14.9464 22.771C14.9732 22.5374 15.0213 22.3066 15.0901 22.0817C15.4875 20.9767 15.8864 19.8714 16.3313 18.7852C16.5035 18.3927 16.7347 18.0289 17.0168 17.7066C21.5641 12.301 26.185 6.96172 31.2041 1.98357C31.4089 1.7725 31.6273 1.57497 31.8578 1.39225C32.5103 0.89483 33.1896 0.879061 33.8431 1.37946C34.2411 1.69461 34.6185 2.03489 34.9734 2.39824C35.5994 3.01927 36.2044 3.66126 36.8232 4.2895C37.3747 4.8492 37.243 5.55396 36.8183 6.02025C36.4765 6.39578 36.1095 6.74782 35.7479 7.10458C31.5407 11.2569 27.2921 15.3683 23.1492 19.5843C21.9699 20.8113 20.6163 21.8572 19.1324 22.688C18.4077 23.0866 17.6624 23.4476 16.9219 23.8167C16.7313 23.9138 16.531 23.9907 16.3246 24.0462C15.4292 24.2773 14.9173 23.866 14.9464 22.771ZM20.6862 19.5869L31.5952 8.27043L29.9419 5.78928C26.1983 9.82812 22.5145 13.8022 18.776 17.8359C19.4462 18.4506 20.0861 19.0374 20.6856 19.5869H20.6862ZM31.294 4.5422L33.2814 6.55131L34.8168 5.18483C34.1542 4.40669 33.544 3.68976 32.9081 2.9426L31.294 4.5422ZM17.8135 19.4322C17.6126 19.8997 17.4629 20.2482 17.3153 20.5918L17.9203 21.2687L18.8433 20.7297L17.8135 19.4322Z" fill="#FFFD77"/>
</g>
<defs>
<clipPath id="clip0_97_78">
<rect width="37" height="37.2403" fill="white" transform="translate(0.271301 0.530823)"/>
</clipPath>
</defs>
</svg>
