<svg width="545" height="77" viewBox="0 0 545 77" fill="none" xmlns="http://www.w3.org/2000/svg">
<path d="M324.839 3.54564C328.13 3.54566 331.601 3.80225 335.25 4.30931L335.251 4.30833C338.925 4.78763 342.597 5.56994 346.263 6.65404L347.578 7.04271L347.309 8.38646L344.309 23.3865L343.968 25.0925L342.331 24.5046C339.176 23.3713 336.328 22.6018 333.782 22.1824L333.773 22.1804L333.765 22.1794C331.187 21.7245 328.712 21.4988 326.339 21.4988C323.199 21.4988 320.42 21.9477 317.983 22.8181L317.976 22.8201L317.968 22.823C315.51 23.6717 313.456 24.8579 311.778 26.365C310.108 27.8654 308.813 29.6925 307.895 31.8679L307.896 31.8689C307.011 34.0101 306.557 36.4061 306.557 39.0769C306.557 42.1321 306.875 44.8111 307.491 47.1286C308.102 49.4281 309.034 51.3261 310.259 52.8581C311.476 54.3785 313.01 55.5436 314.887 56.3562H314.886C316.783 57.1636 319.087 57.5925 321.839 57.5925H326.339V47.072L317.538 48.2507L315.839 48.4783V33.5925H347.339V67.6335L346.605 68.0691C344.246 69.4719 341.955 70.6588 339.733 71.6247L339.724 71.6277L339.716 71.6316C337.503 72.562 335.313 73.3187 333.149 73.9001L333.139 73.9031L333.129 73.906C330.977 74.452 328.836 74.8382 326.708 75.0652L326.709 75.0661C324.615 75.3238 322.492 75.4519 320.339 75.4519C316.791 75.4519 313.392 75.0487 310.144 74.238C306.902 73.4598 303.874 72.322 301.068 70.821C298.265 69.3219 295.719 67.4951 293.434 65.3406L293.426 65.3327C291.173 63.1771 289.23 60.7446 287.6 58.0388L287.593 58.0271C285.991 55.3133 284.754 52.3616 283.877 49.1785C282.994 45.9749 282.557 42.5742 282.557 38.9831C282.557 33.7177 283.599 28.883 285.706 24.5046L285.708 24.5007C287.833 20.1194 290.78 16.3699 294.539 13.2644C298.324 10.1321 302.791 7.73426 307.919 6.05736L307.922 6.05638C313.09 4.37667 318.733 3.54564 324.839 3.54564ZM529.151 54.5925C531.251 54.5925 533.161 54.8755 534.855 55.4753H534.854C536.487 56.0225 537.906 56.7746 539.072 57.7585H539.071C540.252 58.7284 541.163 59.87 541.765 61.1872H541.764C542.379 62.4322 542.698 63.7383 542.698 65.0925C542.698 66.4156 542.395 67.7143 541.82 68.9783L541.821 68.9792C541.246 70.282 540.355 71.4047 539.191 72.3503L539.179 72.3591L539.169 72.3679C538.013 73.2703 536.611 73.9969 534.996 74.5691C533.295 75.1713 531.336 75.4519 529.151 75.4519C526.993 75.4519 525.04 75.1699 523.316 74.572L523.306 74.5691C521.691 73.997 520.289 73.2703 519.134 72.3679L519.114 72.3523L519.093 72.3357C517.971 71.3944 517.096 70.2864 516.497 69.0124L516.489 68.9958L516.482 68.9792C515.934 67.738 515.651 66.4543 515.651 65.1394C515.651 63.7839 515.954 62.4727 516.544 61.2195L516.548 61.2107L516.552 61.2029C517.178 59.9143 518.072 58.7877 519.211 57.823L519.434 57.6335C520.56 56.7041 521.908 55.9914 523.447 55.4753C525.141 54.8755 527.051 54.5925 529.151 54.5925ZM26.3532 4.81126V30.5925H42.8532V4.81126H66.8532V74.0925H42.8532V47.0925H26.3532V74.0925H2.35318V4.81126H26.3532ZM210.057 4.81126L210.507 5.40501L233.031 35.1286V4.81126H252.062V74.0925H228.971L228.523 73.4568L206.406 42.0749V74.0925H187.515V4.81126H210.057ZM403.896 4.81126V74.0925H379.896V4.81126H403.896ZM484.828 4.81126V23.0925H469.5V74.0925H445.5V23.0925H430.5V4.81126H484.828ZM541.261 4.81126L541.147 6.41771L538.147 48.699L538.048 50.0925H520.254L520.155 48.699L517.155 6.41771L517.041 4.81126H541.261Z" fill="white" stroke="white" stroke-width="3"/>
<path d="M148.681 39.753L127.69 8.04564L106.34 39.753L148.681 39.753ZM148.681 39.753H150.898L160.015 71.8556H141.78H95.5617L103.999 39.753L117.44 39.753H148.681Z" stroke="white" stroke-width="8"/>
</svg>
