<svg width="544" height="77" viewBox="0 0 544 77" fill="none" xmlns="http://www.w3.org/2000/svg">
<path d="M323.986 3C327.278 3.00002 330.748 3.25661 334.397 3.76367L334.398 3.7627C338.073 4.24199 341.744 5.0243 345.411 6.1084L346.725 6.49707L346.457 7.84082L343.457 22.8408L343.116 24.5469L341.478 23.959C338.323 22.8257 335.476 22.0561 332.929 21.6367L332.92 21.6348L332.913 21.6338C330.335 21.1789 327.86 20.9531 325.486 20.9531C322.347 20.9531 319.568 21.402 317.13 22.2725L317.124 22.2744L317.116 22.2773C314.657 23.1261 312.603 24.3122 310.925 25.8193C309.255 27.3198 307.96 29.1469 307.043 31.3223L307.043 31.3232C306.159 33.4644 305.705 35.8604 305.705 38.5312C305.705 41.5865 306.022 44.2655 306.638 46.583C307.249 48.8824 308.181 50.7804 309.407 52.3125C310.623 53.8328 312.157 54.9979 314.035 55.8105H314.034C315.93 56.618 318.235 57.0469 320.986 57.0469H325.486V46.5264L316.685 47.7051L314.986 47.9326V33.0469H346.486V67.0879L345.752 67.5234C343.393 68.9262 341.102 70.1131 338.88 71.0791L338.872 71.082L338.864 71.0859C336.65 72.0164 334.46 72.7731 332.296 73.3545L332.287 73.3574L332.276 73.3604C330.124 73.9064 327.983 74.2926 325.855 74.5195L325.856 74.5205C323.763 74.7781 321.639 74.9062 319.486 74.9062C315.939 74.9062 312.539 74.5031 309.292 73.6924C306.049 72.9141 303.022 71.7764 300.215 70.2754C297.413 68.7763 294.867 66.9495 292.582 64.7949L292.574 64.7871C290.32 62.6315 288.378 60.1989 286.748 57.4932L286.741 57.4814C285.139 54.7676 283.901 51.816 283.024 48.6328C282.141 45.4292 281.705 42.0286 281.705 38.4375C281.705 33.1721 282.746 28.3373 284.853 23.959L284.855 23.9551C286.98 19.5738 289.927 15.8243 293.686 12.7188C297.471 9.58647 301.939 7.18862 307.066 5.51172L307.069 5.51074C312.237 3.83103 317.881 3 323.986 3ZM528.298 54.0469C530.399 54.0469 532.309 54.3298 534.002 54.9297H534.001C535.634 55.4769 537.053 56.229 538.219 57.2129H538.218C539.399 58.1828 540.31 59.3244 540.913 60.6416H540.912C541.526 61.8866 541.845 63.1927 541.845 64.5469C541.845 65.8699 541.542 67.1687 540.967 68.4326L540.968 68.4336C540.394 69.7363 539.502 70.859 538.338 71.8047L538.327 71.8135L538.316 71.8223C537.161 72.7247 535.759 73.4513 534.143 74.0234C532.443 74.6257 530.484 74.9062 528.298 74.9062C526.14 74.9062 524.187 74.6243 522.463 74.0264L522.454 74.0234C520.838 73.4513 519.437 72.7246 518.282 71.8223L518.261 71.8066L518.241 71.79C517.118 70.8488 516.244 69.7407 515.644 68.4668L515.636 68.4502L515.629 68.4336C515.082 67.1923 514.798 65.9087 514.798 64.5938C514.798 63.2383 515.101 61.9271 515.691 60.6738L515.695 60.665L515.7 60.6572C516.326 59.3686 517.22 58.242 518.358 57.2773L518.582 57.0879C519.707 56.1584 521.055 55.4458 522.594 54.9297C524.288 54.3298 526.198 54.0469 528.298 54.0469ZM25.5005 4.26562V30.0469H42.0005V4.26562H66.0005V73.5469H42.0005V46.5469H25.5005V73.5469H1.50052V4.26562H25.5005ZM209.205 4.26562L209.655 4.85938L232.178 34.583V4.26562H251.21V73.5469H228.119L227.67 72.9111L205.553 41.5293V73.5469H186.663V4.26562H209.205ZM403.043 4.26562V73.5469H379.043V4.26562H403.043ZM483.975 4.26562V22.5469H468.647V73.5469H444.647V22.5469H429.647V4.26562H483.975ZM540.409 4.26562L540.294 5.87207L537.294 48.1533L537.196 49.5469H519.401L519.302 48.1533L516.302 5.87207L516.188 4.26562H540.409Z" fill="#533E2D" stroke="#533E2D" stroke-width="3"/>
<path d="M147.828 39.2074L126.838 7.5L105.488 39.2074L147.828 39.2074ZM147.828 39.2074H150.045L159.162 71.31H140.928H94.709L103.146 39.2074L116.588 39.2074H147.828Z" stroke="#533E2D" stroke-width="8"/>
</svg>
