<svg width="37" height="36" viewBox="0 0 37 36" fill="none" xmlns="http://www.w3.org/2000/svg">
<g clip-path="url(#clip0_247_20)">
<path d="M9.50335 8.61226C9.50335 8.1072 9.14046 7.78252 8.88113 7.40911C8.12982 6.32778 7.34848 5.26623 6.6214 4.16899C6.02843 3.316 5.61156 2.35436 5.39494 1.33988C5.36121 1.15497 5.37218 0.96475 5.42705 0.784927C5.48192 0.605102 5.57915 0.440873 5.71051 0.305833C5.83744 0.168947 6.00283 0.0732696 6.18521 0.0313197C6.36759 -0.0106302 6.55844 0.00307201 6.73289 0.0706424C7.27448 0.308543 7.65044 0.728266 8.01252 1.15826C9.46796 2.88658 10.9161 4.6211 12.3569 6.36184C13.7413 8.02699 15.1456 9.67642 16.4952 11.3687C17.9619 13.2078 19.3748 15.0891 20.813 16.9508C21.216 17.4722 21.6016 18.0091 22.0353 18.5042C23.9611 20.7025 25.6883 23.0533 27.4494 25.3804C28.1301 26.2796 28.896 27.1146 29.5867 28.0068C31.1992 30.0897 32.7976 32.1832 34.3821 34.2874C34.7538 34.7816 34.6046 35.5079 34.1508 35.7848C33.9412 35.8942 33.7031 35.9369 33.4683 35.9073C33.2337 35.8778 33.0138 35.777 32.8385 35.6191C32.5727 35.3542 32.3176 35.0777 32.0696 34.7963C29.953 32.3944 27.8369 29.9921 25.7214 27.5895C25.6018 27.443 25.4453 27.3308 25.2677 27.2644C25.0901 27.1979 24.898 27.1796 24.7109 27.2112C24.0601 27.3191 23.414 27.4546 22.765 27.5742C19.2335 28.2257 15.8082 27.7417 12.4548 26.5863C9.49674 25.567 6.68456 24.2455 4.14142 22.4109C3.37077 21.8691 2.64352 21.2685 1.96619 20.6149C1.4404 20.0777 0.98333 19.478 0.605293 18.8294C-0.226157 17.4454 -0.127952 16.8011 1.01388 15.5654C3.13015 13.283 5.54021 11.2886 8.18143 9.63398C8.65144 9.33757 9.23255 9.17422 9.50335 8.61226ZM14.6824 14.4794C13.9271 13.282 12.9609 12.265 11.9391 11.3035C11.7686 11.1427 11.4075 11.1185 11.143 11.1395C10.8635 11.1796 10.5946 11.2735 10.3513 11.416C7.58033 12.8537 5.08972 14.6887 2.75969 16.7484C2.66869 16.8219 2.59359 16.9128 2.53887 17.016C2.48416 17.1191 2.45094 17.2321 2.44128 17.3483C2.43161 17.4645 2.44567 17.5815 2.48262 17.6921C2.51957 17.8027 2.57863 17.9048 2.65626 17.9922C3.28132 18.6942 4.00269 19.3052 4.79906 19.8072C7.56098 21.6442 10.5699 22.9578 13.744 23.8927C16.3048 24.6464 18.9262 24.7813 21.5724 24.4424C21.7718 24.4243 21.9627 24.3542 22.1261 24.2389C22.2894 24.1237 22.4192 23.9676 22.5022 23.7864C22.2423 23.4429 21.9585 23.0743 21.6815 22.7009C20.9772 21.7517 20.1879 20.997 18.8497 21.3759C18.6631 21.4015 18.4741 21.4026 18.2873 21.3791C16.2848 21.3807 13.8602 19.7297 14.2069 16.6894C14.2901 15.9575 14.5141 15.242 14.6824 14.4788V14.4794Z" fill="#533E2D"/>
<path d="M29.8293 24.9703C29.1461 24.6017 28.7018 24.0174 28.3014 23.3477C28.1761 23.1425 28.1277 22.8994 28.1649 22.662C28.2022 22.4246 28.3228 22.2079 28.5052 22.0504C28.5853 21.9813 28.6708 21.9184 28.7609 21.8626C29.8062 21.2221 30.7733 20.4634 31.6431 19.6014C35.0325 16.2625 34.8485 17.0805 31.6431 13.9413C29.6557 11.9963 27.1422 10.8782 24.4836 10.1182C22.8482 9.65078 21.1766 9.36094 19.4605 9.427C18.9895 9.44533 18.5174 9.4347 18.0461 9.44612C17.3333 9.46364 16.7729 9.14427 16.3108 8.64468C16.0583 8.37141 15.8552 8.05266 15.6288 7.75528C15.4886 7.57091 15.6597 7.15233 15.8914 7.07581C17.7301 6.46836 19.615 6.53393 21.4931 6.76138C26.6473 7.38571 30.9797 9.71908 34.7233 13.2095C35.3358 13.7804 35.8393 14.4753 36.3468 15.1476C36.7324 15.6893 36.936 16.3385 36.9284 17.0022C36.936 17.3669 36.9247 17.7945 36.7476 18.0904C35.0921 20.8596 33.1816 23.3971 30.1671 24.8639C30.0569 24.9066 29.9441 24.9422 29.8293 24.9703Z" fill="#533E2D"/>
<path d="M23.8921 16.443C23.8462 16.8068 23.5751 17.6248 23.4397 17.4573C22.3813 16.1553 20.7828 14.2497 19.768 12.9132C19.7263 12.843 19.7029 12.7634 19.6998 12.6819C19.6967 12.6003 19.714 12.5193 19.7502 12.4461C19.8144 12.3827 19.8918 12.3339 19.9767 12.3033C20.0617 12.2726 20.1525 12.2607 20.2425 12.2685C21.0796 12.4011 21.8581 12.778 22.4795 13.3514C23.4368 14.2233 24.0266 15.376 23.8921 16.443Z" fill="#533E2D"/>
</g>
<defs>
<clipPath id="clip0_247_20">
<rect width="37" height="36.0067" fill="white"/>
</clipPath>
</defs>
</svg>
