<svg width="792" height="667" viewBox="0 0 792 667" fill="none" xmlns="http://www.w3.org/2000/svg">
<g clip-path="url(#clip0_227_109)">
<path d="M260.947 146.1L741.678 179.716L733.084 302.616L252.353 269L260.947 146.1Z" fill="#B88B4A"/>
<path d="M252.353 269L251.934 274.985L263.952 275.826L264.371 269.84L264.789 263.855L252.771 263.014L252.353 269ZM288.407 271.521L287.989 277.506L312.025 279.187L312.444 273.202L312.862 267.216L288.826 265.536L288.407 271.521ZM336.48 274.883L336.062 280.868L360.098 282.549L360.517 276.563L360.936 270.578L336.899 268.897L336.48 274.883ZM384.554 278.244L384.135 284.23L408.172 285.91L408.59 279.925L409.009 273.94L384.972 272.259L384.554 278.244ZM432.627 281.606L432.208 287.591L456.245 289.272L456.663 283.287L457.082 277.301L433.045 275.62L432.627 281.606ZM480.7 284.967L480.281 290.953L504.318 292.634L504.736 286.648L505.155 280.663L481.118 278.982L480.7 284.967ZM528.773 288.329L528.354 294.314L552.391 295.995L552.809 290.01L553.228 284.024L529.191 282.344L528.773 288.329ZM576.846 291.691L576.427 297.676L600.464 299.357L600.883 293.371L601.301 287.386L577.264 285.705L576.846 291.691ZM624.919 295.052L624.501 301.038L648.537 302.718L648.956 296.733L649.374 290.748L625.338 289.067L624.919 295.052ZM672.992 298.414L672.574 304.399L696.61 306.08L697.029 300.095L697.447 294.109L673.411 292.428L672.992 298.414ZM721.065 301.775L720.647 307.761L732.665 308.601L733.084 302.616L733.502 296.63L721.484 295.79L721.065 301.775Z" fill="#533E2D"/>
<path d="M572.328 106.579C578.712 110.702 585.335 117.767 591.23 124.212C597.495 131.061 601.336 139.27 606.745 143.593C613.389 148.902 620.979 128.645 629.103 123.151C637.62 117.3 642.513 113.348 645.706 111.842C647.315 111.084 648.899 110.336 653.001 107.175" stroke="#8A6735" stroke-width="12" stroke-linecap="round"/>
<g clip-path="url(#clip1_227_109)">
<path d="M353.131 206.252L335.113 173.73L311.769 203.659M353.131 206.252L355.327 206.405L362.712 239.176L298.868 234.712L309.449 203.497L311.769 203.659M353.131 206.252L311.769 203.659" stroke="white" stroke-width="8"/>
</g>
<rect x="693.085" y="193.406" width="84.2815" height="286.411" transform="rotate(94 693.085 193.406)" fill="#F2F7BF" stroke="#F2F7BF" stroke-width="4" stroke-dasharray="8 8"/>
<g clip-path="url(#clip2_227_109)">
<path d="M572.291 237.415C572.131 240.93 571.963 244.567 571.748 248.138C571.601 250.586 571.994 252.682 572.951 254.547C574.913 258.373 577.902 260.608 581.833 261.19C583.053 261.345 584.281 261.427 585.511 261.436C586.223 261.455 586.959 261.475 587.677 261.525C589.897 261.68 592.259 261.868 595.109 262.125C600.512 262.612 605.865 263.11 610.845 263.576C613.532 263.828 616.22 264.086 619.206 264.374L623.564 264.793L623.571 264.794C623.585 264.795 623.599 264.795 623.612 264.794C623.9 264.773 624.254 264.756 624.658 264.736C625.739 264.683 627.219 264.61 628.669 264.41C634.686 263.583 639.799 257.881 640.067 251.702C640.23 247.942 640.422 244.491 640.654 241.152C640.871 238.013 641.113 234.823 641.347 231.738C641.55 229.061 641.759 226.294 641.953 223.571C641.992 223.008 641.983 222.437 641.974 221.885C641.944 221.182 641.967 220.477 642.042 219.776C642.593 215.659 642.225 211.537 641.836 207.997C641.501 204.941 640.546 202.613 638.916 200.88C636.318 198.119 633.178 196.633 629.582 196.443C628.723 196.399 627.85 196.41 627.007 196.421C626.172 196.432 625.308 196.443 624.465 196.4C620.756 196.212 616.987 195.985 613.342 195.766C605.16 195.275 596.699 194.768 588.356 194.65C587.319 194.612 586.28 194.655 585.25 194.78C579.806 195.563 576.303 198.468 574.84 203.414C574.577 204.45 574.431 205.512 574.406 206.58C574.386 206.903 574.367 207.225 574.34 207.545C574.209 209.153 574.073 210.76 573.934 212.367C573.549 216.88 573.152 221.546 572.867 226.144C572.636 229.899 572.46 233.72 572.291 237.415ZM638.203 222.155L637.064 238.44L620.54 237.636L621.181 221.239L638.203 222.155ZM620.164 242.245C620.954 242.293 621.738 242.342 622.516 242.392C624.532 242.52 626.436 242.642 628.383 242.729C630.337 242.817 632.255 242.868 634.286 242.922C635.091 242.944 635.904 242.966 636.725 242.99C636.726 243.008 636.728 243.025 636.729 243.043C636.753 243.278 636.761 243.513 636.751 243.749C636.698 244.577 636.663 245.423 636.628 246.24C636.588 248.189 636.425 250.134 636.14 252.064C635.454 256.095 633.217 258.874 629.491 260.324C627.432 261.124 621.155 261.463 618.87 260.735L620.164 242.245ZM637.192 206.464C637.576 208.016 637.871 209.589 638.075 211.175C638.255 212.59 638.354 214.044 638.45 215.449C638.477 215.869 638.507 216.29 638.538 216.71C638.555 217.031 638.555 217.352 638.539 217.673C638.537 217.743 638.534 217.816 638.532 217.887L621.193 217.027L621.632 199.881C622.484 199.969 623.326 200.05 624.144 200.126C626.388 200.336 628.504 200.535 630.608 200.923C631.899 201.16 633.145 201.931 634.349 202.677L634.559 202.806C635.217 203.21 635.789 203.742 636.241 204.37C636.693 204.997 637.017 205.709 637.192 206.464L637.192 206.464ZM599.653 216.088C599.645 215.999 599.637 215.913 599.629 215.828C599.593 215.552 599.579 215.274 599.586 214.997C599.696 213.091 599.811 211.186 599.929 209.28C600.057 207.178 600.182 205.075 600.306 202.972C600.36 202.013 600.387 201.055 600.416 200.04C600.427 199.655 600.438 199.262 600.452 198.858L618.604 199.802L617.651 216.887L599.653 216.088ZM597.421 248.555C597.69 246.135 597.967 243.634 598.176 241.135C603.975 241.099 609.622 241.505 615.597 241.935L616.308 241.986L614.672 260.295L596.494 258.404C596.692 255.128 597.063 251.788 597.422 248.554L597.421 248.555ZM598.57 236.616L599.491 220.22C601.434 220.099 614.72 220.736 617.499 221.196C617.481 225.199 617.204 229.128 616.912 233.282C616.819 234.601 616.727 235.927 616.64 237.26L598.57 236.616ZM595.34 198.721C595.669 198.744 596.002 198.773 596.344 198.803C596.628 198.828 596.916 198.853 597.207 198.876C597.371 199.438 597.266 200.02 597.156 200.634C597.109 200.887 597.063 201.149 597.036 201.411C596.717 204.46 596.375 207.559 596.046 210.556C595.889 211.979 595.733 213.402 595.578 214.825C595.55 215.084 595.534 215.336 595.515 215.653C595.509 215.739 595.505 215.826 595.499 215.92C589.287 215.758 583.397 215.501 577.513 215.136C577.532 214.74 577.55 214.344 577.566 213.95C577.718 210.419 577.861 207.084 579.309 203.918C580.518 201.276 582.444 199.714 585.198 199.141C587.663 198.627 590.204 198.647 592.662 198.666C593.164 198.67 593.666 198.674 594.168 198.674C594.558 198.675 594.946 198.693 595.34 198.721ZM576.173 236.535L577.419 218.719L595.277 219.968C595.136 225.44 594.76 230.934 594.13 236.744L576.173 236.535ZM575.877 240.178L575.895 239.919L593.811 241.172L591.98 258.304C591.006 258.214 590.037 258.138 589.097 258.065C586.728 257.88 584.49 257.706 582.259 257.315C579.088 256.76 576.867 254.718 575.835 251.409C575.29 249.618 575.134 247.73 575.377 245.872C575.513 244.751 575.606 243.607 575.695 242.501C575.731 242.062 575.766 241.622 575.804 241.183C575.832 240.859 575.853 240.537 575.878 240.178L575.877 240.178Z" fill="#533E2D"/>
</g>
<g clip-path="url(#clip3_227_109)">
<path d="M460.494 219.497C460.907 213.584 461.337 207.671 461.724 201.758C461.835 200.077 461.806 198.387 461.872 196.703C462.046 192.255 465.316 189.21 470.045 189.447C479.903 189.941 489.776 190.207 499.602 191.232C500.642 191.34 501.694 191.34 502.732 191.459C503.362 191.528 503.98 191.675 504.574 191.896C504.834 191.992 505.057 192.169 505.209 192.401C505.361 192.633 505.434 192.909 505.418 193.186C505.415 193.79 505.162 194.308 504.607 194.496C503.922 194.723 503.212 194.864 502.493 194.916C501.856 194.932 501.219 194.888 500.59 194.786C492.403 193.859 484.185 193.326 475.96 192.9C473.739 192.797 471.513 192.818 469.294 192.965C467.905 193.05 466.603 193.584 465.968 195C465.688 195.567 465.515 196.182 465.457 196.813C465.351 199.223 465.33 201.638 465.279 204.051C465.262 204.871 465.284 205.694 465.236 206.512C464.798 213.977 464.388 221.444 463.887 228.905C463.575 233.545 463.096 238.173 462.746 242.811C462.691 244.037 462.703 245.267 462.782 246.492C462.809 247.319 463.229 247.853 464.079 247.999C464.347 248.044 464.608 248.156 464.877 248.175C467.415 248.354 469.951 248.561 472.492 248.681C475.718 248.832 478.952 248.83 482.174 249.033C490.03 249.529 497.882 250.084 505.733 250.656C507.955 250.817 510.166 251.121 512.384 251.348C513.201 251.46 514.032 251.293 514.742 250.872C515.453 250.452 516.001 249.803 516.297 249.031C516.416 248.741 516.486 248.432 516.505 248.119C516.643 245.71 516.61 243.281 516.916 240.894C517.976 232.611 518.555 224.288 519.134 215.964C519.195 215.1 519.267 214.236 519.378 213.377C519.435 212.879 519.549 212.389 519.718 211.917C519.807 211.655 519.976 211.427 520.2 211.265C520.425 211.103 520.694 211.016 520.971 211.015C521.615 210.985 522.192 211.19 522.423 211.81C522.657 212.399 522.787 213.024 522.808 213.658C522.815 216.437 522.761 219.217 522.721 221.997C522.595 230.721 521.496 239.366 520.634 248.03C520.525 248.935 520.294 249.82 519.947 250.662C519.623 251.543 519.097 252.336 518.412 252.977C517.727 253.618 516.902 254.088 516.002 254.352C514.262 254.893 512.435 255.097 510.619 254.954C504.766 254.529 498.911 254.139 493.058 253.722C490.834 253.564 488.616 253.319 486.391 253.202C481.122 252.928 475.85 252.72 470.581 252.46C468.446 252.355 466.307 252.255 464.182 252.031C460.806 251.674 458.815 249.287 459.01 245.85C459.51 237.067 460.048 228.285 460.57 219.503L460.494 219.497Z" fill="#533E2D"/>
<path d="M484.541 227.997C484.614 227.604 484.723 227.218 484.867 226.844C485.673 225.014 486.482 223.184 487.367 221.392C487.706 220.746 488.142 220.155 488.659 219.641C497.025 211 505.508 202.479 514.624 194.62C514.997 194.286 515.392 193.976 515.805 193.693C516.972 192.926 518.128 192.98 519.179 193.907C519.817 194.49 520.418 195.113 520.978 195.772C521.967 196.901 522.918 198.063 523.895 199.204C524.765 200.22 524.458 201.402 523.681 202.143C523.056 202.741 522.391 203.295 521.734 203.858C514.095 210.411 506.39 216.89 498.852 223.559C496.703 225.503 494.28 227.119 491.661 228.354C490.383 228.945 489.074 229.469 487.772 230.008C487.437 230.151 487.088 230.257 486.73 230.327C485.182 230.613 484.361 229.854 484.541 227.997ZM494.668 223.271L514.542 205.345L512.028 200.934C505.19 207.35 498.461 213.662 491.632 220.07C492.697 221.194 493.714 222.266 494.667 223.271L494.668 223.271ZM514.473 198.977L517.61 202.625L520.381 200.487C519.348 199.086 518.396 197.796 517.405 196.451L514.473 198.977ZM489.807 222.667C489.411 223.437 489.115 224.011 488.823 224.577L489.771 225.799L491.402 224.993L489.807 222.667Z" fill="#533E2D"/>
</g>
<path d="M297.956 293.383C295.867 295.472 285.388 300.205 253.121 319.065C229.415 332.921 194.214 360.908 170.946 379.333C147.677 397.758 138.275 407.16 132.387 417.75C126.499 428.339 124.409 439.831 124.116 457.765C123.823 475.699 125.39 499.727 129.071 518.895C132.751 538.064 138.497 551.645 148.508 565.432C169.942 594.947 198.646 612.016 223.632 621.498C236.861 626.518 252.274 628.89 270.263 630.504C288.253 632.119 308.624 632.119 329.566 628.201C350.507 624.284 371.401 616.448 392.09 606.927C433.352 587.938 455.69 572.523 460.953 566.216C482.095 540.876 482.63 497.606 480.533 491.812C475.851 478.88 456.275 483.328 450.743 484.112C446.179 484.758 444.119 491.733 442.536 498.579C439.799 510.416 446.715 525.464 453.577 535.793C461.326 547.456 479.354 553.988 510.592 563.192C561.164 578.094 588.711 556.865 588.711 546.658C588.711 535.793 565.373 500.573 564.351 491.812" stroke="#8A6735" stroke-width="12" stroke-linecap="round"/>
<path d="M563.918 492.148C562.873 492.148 559.723 495.805 554.721 502.912C552.331 506.362 550.241 509.497 548.904 512.156C547.566 514.815 547.044 516.904 546.506 519.057" stroke="#8A6735" stroke-width="12" stroke-linecap="round"/>
<path d="M569.304 490.05L621.153 526.39" stroke="#8A6735" stroke-width="12" stroke-linecap="round"/>
<path d="M217.722 354.435L698.789 326.024L706.052 449.01L224.985 477.421L217.722 354.435Z" fill="#B88B4A"/>
<path d="M224.985 477.421L225.339 483.41L237.366 482.7L237.012 476.71L236.658 470.721L224.631 471.431L224.985 477.421ZM261.065 475.29L261.419 481.28L285.472 479.859L285.119 473.869L284.765 467.88L260.711 469.3L261.065 475.29ZM309.172 472.449L309.526 478.438L333.579 477.018L333.225 471.028L332.871 465.039L308.818 466.459L309.172 472.449ZM357.279 469.608L357.632 475.597L381.686 474.177L381.332 468.187L380.978 462.198L356.925 463.618L357.279 469.608ZM405.385 466.767L405.739 472.756L429.792 471.336L429.439 465.346L429.085 459.357L405.031 460.777L405.385 466.767ZM453.492 463.926L453.846 469.915L477.899 468.495L477.545 462.505L477.191 456.515L453.138 457.936L453.492 463.926ZM501.599 461.084L501.952 467.074L526.006 465.654L525.652 459.664L525.298 453.674L501.245 455.095L501.599 461.084ZM549.705 458.243L550.059 464.233L574.112 462.812L573.759 456.823L573.405 450.833L549.351 452.254L549.705 458.243ZM597.812 455.402L598.166 461.392L622.219 459.971L621.865 453.982L621.512 447.992L597.458 449.413L597.812 455.402ZM645.919 452.561L646.272 458.551L670.326 457.13L669.972 451.141L669.618 445.151L645.565 446.572L645.919 452.561ZM694.025 449.72L694.379 455.71L706.406 454.999L706.052 449.01L705.698 443.02L693.671 443.731L694.025 449.72Z" fill="#533E2D"/>
<rect x="614.001" y="348.078" width="84.2815" height="119.432" transform="rotate(86.6201 614.001 348.078)" fill="#F2F7BF" stroke="#F2F7BF" stroke-width="4" stroke-dasharray="8 8"/>
<g clip-path="url(#clip4_227_109)">
<path d="M566.799 423.982C560.409 424.359 554.018 424.706 547.631 425.124C542.496 425.461 537.37 425.912 532.236 426.251C530.791 426.337 529.342 426.314 527.9 426.184C524.796 425.924 523.464 424.178 524.316 421.183C524.901 419.176 525.705 417.239 526.715 415.408C530.99 407.569 537.57 402.253 545.616 398.604C549.982 396.587 554.678 395.374 559.476 395.023C566.652 394.536 573.369 395.964 579.293 400.355C583.334 403.309 586.716 407.068 589.225 411.393C589.924 412.602 590.7 413.777 591.278 415.042C591.829 416.209 592.239 417.438 592.498 418.701C592.858 420.596 591.866 421.926 589.969 422.279C588.647 422.538 587.31 422.718 585.965 422.817C579.578 423.224 573.187 423.586 566.798 423.963L566.799 423.982ZM587.515 418.081C587.527 417.876 587.513 417.671 587.472 417.47C585.126 412.318 582.032 407.719 577.467 404.242C573.945 401.561 570.063 399.711 565.563 399.412C560.379 399.069 555.287 399.506 550.341 401.217C540.982 404.454 533.7 410.168 529.002 418.964C528.468 419.965 528.06 421.032 527.577 422.101C527.747 422.181 527.924 422.247 528.106 422.299C529.909 422.584 531.671 422.25 533.461 422.044C537.18 421.614 540.917 421.304 544.653 421.064C556.879 420.278 569.108 419.56 581.334 418.78C583.368 418.649 585.389 418.326 587.515 418.081L587.515 418.081Z" fill="#533E2D"/>
<path d="M556.163 362.401C561.079 361.991 565.33 364.092 568.704 368.167C569.5 369.128 570.443 370.008 571.046 371.078C572.393 373.47 573.537 375.94 573.068 378.852C572.628 381.586 572 384.231 570.389 386.546C567.524 390.658 563.718 393.321 558.707 394.223C554.196 395.035 549.836 394.619 545.677 392.725C541.393 390.774 538.819 387.36 537.692 382.844C535.994 376.046 539.235 369.668 544.729 366.054C548.054 363.866 551.711 362.647 556.163 362.401ZM567.775 375.73C567.898 373.984 567.121 372.641 565.969 371.443C565.52 370.976 565.109 370.47 564.643 370.02C562.958 368.391 561.071 367.135 558.648 366.917C555.248 366.56 551.817 367.216 548.79 368.803C545.009 370.816 542.27 373.706 541.869 378.266C541.401 383.586 544.408 388.144 549.351 389.415C552.312 390.15 555.398 390.235 558.395 389.664C562.496 388.949 567.106 384.427 567.506 380.043C567.637 378.608 567.687 377.167 567.775 375.728L567.775 375.73Z" fill="#533E2D"/>
</g>
<path d="M-6.43242 185.264C-0.172135 184.019 6.08815 182.774 72.8708 169.209C139.653 155.644 266.769 129.795 340.617 116.406C414.464 103.016 431.192 102.869 440.061 103.863C448.93 104.857 449.433 106.998 449.326 109.138C448.591 123.864 400.147 143.736 362.552 156.662C349.737 161.068 346.865 153.873 349.588 148.657C356.013 136.351 394.441 124.438 453.086 106.596C484.838 96.9364 522.2 89.8515 549.611 85.6416C577.021 81.4317 593.749 81.2842 602.575 83.0687C611.402 84.8532 611.819 88.5741 611.833 94.1784C611.847 99.7827 611.447 107.158 610.989 109.886C610.531 112.615 610.028 110.475 609.596 106.673" stroke="#8A6735" stroke-width="12" stroke-linecap="round"/>
<path d="M1695.3 -380.844C1692.17 -380.844 1689.04 -380.844 1641.22 -384.867C1593.4 -388.89 1500.98 -396.935 1376.23 -399.224C1251.48 -401.512 1097.2 -397.798 1000.49 -393.1C903.777 -388.402 869.318 -382.832 849.999 -379.653C830.681 -376.475 827.548 -375.856 828.676 -372.442C842.007 -332.077 888.375 -291.499 888.802 -283.069C889.227 -274.689 835 -277.058 770.97 -279.552C746.078 -280.522 736.7 -282.047 727.552 -280.209C708.428 -276.367 689.164 -259.035 670.582 -243.422C653.389 -228.977 658.217 -210.836 636.252 -191.294C617.26 -174.397 579.829 -145.14 516.225 -101.058C452.622 -56.9761 363.34 0.580936 292.677 50.3455C292.677 50.3455 165.823 125.125 128.658 150.8C91.4927 176.474 14.7261 184.133 -0.118546 189.853" stroke="#8A6735" stroke-width="12" stroke-linecap="round"/>
</g>
<defs>
<clipPath id="clip0_227_109">
<rect width="792" height="667" fill="white"/>
</clipPath>
<clipPath id="clip1_227_109">
<rect width="76" height="75" fill="white" transform="translate(297.708 165.281) rotate(4)"/>
</clipPath>
<clipPath id="clip2_227_109">
<rect width="69" height="69" fill="white" transform="translate(575.098 192.491) rotate(4)"/>
</clipPath>
<clipPath id="clip3_227_109">
<rect width="63" height="63.4091" fill="white" transform="translate(462.256 188.478) rotate(4)"/>
</clipPath>
<clipPath id="clip4_227_109">
<rect width="69" height="62.6863" fill="white" transform="translate(520.461 364.305) rotate(-3.38107)"/>
</clipPath>
</defs>
</svg>
