<svg width="763" height="853" viewBox="0 0 763 853" fill="none" xmlns="http://www.w3.org/2000/svg">
<g clip-path="url(#clip0_228_112)">
<g clip-path="url(#clip1_228_112)">
<path d="M137.747 512.761C137.433 511.672 136.449 511.197 135.658 510.554C133.367 508.69 131.024 506.887 128.775 504.973C126.967 503.503 125.471 501.689 124.374 499.637C124.186 499.259 124.092 498.842 124.098 498.421C124.105 497.999 124.213 497.585 124.412 497.212C124.6 496.838 124.897 496.529 125.265 496.325C125.632 496.122 126.051 496.033 126.469 496.07C127.785 496.246 128.856 496.917 129.903 497.619C134.114 500.441 138.313 503.28 142.5 506.137C146.518 508.867 150.57 511.55 154.53 514.359C158.834 517.412 163.049 520.59 167.305 523.709C168.497 524.583 169.662 525.501 170.904 526.299C176.421 529.841 181.604 533.835 186.846 537.757C188.872 539.273 191.041 540.597 193.084 542.091C197.854 545.579 202.6 549.099 207.322 552.65C208.43 553.485 208.56 555.143 207.754 556.022C207.37 556.388 206.883 556.628 206.359 556.71C205.835 556.792 205.298 556.711 204.822 556.48C204.085 556.074 203.363 555.636 202.654 555.184C196.599 551.321 190.546 547.457 184.493 543.592C184.145 543.351 183.738 543.206 183.314 543.174C182.889 543.14 182.464 543.22 182.08 543.405C180.745 544.042 179.436 544.735 178.111 545.396C170.904 548.994 163.22 550.078 155.274 549.671C148.264 549.311 141.382 548.209 134.76 545.835C132.763 545.145 130.822 544.303 128.956 543.315C127.489 542.483 126.131 541.474 124.914 540.311C122.262 537.844 122.073 536.395 123.767 533.022C126.911 526.787 130.867 520.991 135.532 515.784C136.361 514.853 137.512 514.14 137.747 512.761ZM152.555 522.19C150.183 520.079 147.469 518.487 144.669 517.049C144.202 516.808 143.408 516.98 142.851 517.19C142.274 517.45 141.752 517.819 141.316 518.277C136.237 523.098 132.008 528.6 128.265 534.487C128.114 534.702 128.009 534.945 127.955 535.201C127.901 535.457 127.9 535.722 127.951 535.978C128.002 536.235 128.105 536.478 128.254 536.694C128.402 536.909 128.593 537.092 128.814 537.233C130.598 538.357 132.532 539.226 134.561 539.814C141.655 542.058 148.957 543.02 156.379 543.064C162.368 543.098 168.102 541.76 173.595 539.386C174.014 539.223 174.382 538.953 174.662 538.603C174.943 538.254 175.126 537.837 175.192 537.394C174.418 536.816 173.578 536.197 172.749 535.564C170.641 533.956 168.471 532.819 165.822 534.467C165.435 534.638 165.029 534.758 164.611 534.824C160.296 536.071 154.044 534.018 152.903 527.249C152.628 525.62 152.666 523.939 152.555 522.189L152.555 522.19Z" fill="#533E2D"/>
<path d="M191.721 535.395C190.02 535.025 188.699 534.042 187.42 532.847C187.022 532.482 186.767 531.988 186.7 531.453C186.633 530.919 186.758 530.377 187.053 529.924C187.183 529.725 187.328 529.536 187.488 529.36C189.343 527.33 190.956 525.094 192.296 522.696C197.528 513.393 197.639 515.271 188.78 510.495C183.288 507.537 177.175 506.689 170.973 506.702C167.157 506.71 163.374 507.124 159.716 508.332C158.712 508.664 157.688 508.934 156.679 509.252C155.153 509.732 153.747 509.392 152.441 508.602C151.727 508.17 151.091 507.609 150.418 507.109C150.001 506.798 150.11 505.79 150.562 505.481C154.148 503.029 158.252 502 162.442 501.324C173.939 499.468 184.727 501.806 194.965 507.004C196.64 507.855 198.157 509.04 199.668 510.174C200.836 511.102 201.678 512.375 202.074 513.81C202.317 514.592 202.558 515.52 202.36 516.268C200.512 523.265 197.97 529.922 192.383 534.956C192.172 535.117 191.951 535.263 191.721 535.395Z" fill="#533E2D"/>
<path d="M173.627 520.702C173.754 521.515 173.677 523.446 173.281 523.17C170.191 521.02 165.562 517.906 162.544 515.655C162.411 515.53 162.311 515.373 162.254 515.199C162.196 515.025 162.183 514.84 162.216 514.66C162.315 514.483 162.451 514.33 162.615 514.211C162.779 514.092 162.968 514.01 163.167 513.971C165.053 513.737 166.966 514.066 168.661 514.916C171.266 516.2 173.253 518.319 173.627 520.702Z" fill="#533E2D"/>
</g>
<g clip-path="url(#clip2_228_112)">
<path d="M578.932 174.456C586.049 176.852 592.433 180.538 597.799 185.817C601.748 189.677 605.095 194.113 607.729 198.977C608.492 200.49 609.173 202.045 609.768 203.633C610.53 205.508 610.168 207.427 609.693 209.275C609.432 210.085 608.952 210.807 608.308 211.36C602.02 217.048 594.875 220.947 586.369 222.109C574.338 223.753 563.187 221.57 553.101 214.677C545.702 209.621 539.174 203.637 534.109 196.147C532.67 194.018 531.463 191.788 530.918 189.257C530.725 188.217 530.598 187.164 530.539 186.107C530.442 184.952 531 184.031 531.811 183.311C532.461 182.764 533.164 182.284 533.909 181.878C539.232 178.773 544.875 176.263 550.739 174.392C556.212 172.653 561.97 172.023 567.681 172.539C571.462 172.865 575.288 173.169 578.932 174.456ZM535.344 186.984C535.915 189.436 537.356 191.273 538.805 193.098C543.861 199.465 549.948 204.657 556.81 208.958C564.03 213.483 571.949 215.225 580.407 214.958C588.936 214.688 596.477 211.59 603.536 207.021C603.728 206.927 603.889 206.779 603.998 206.595C604.135 206.218 604.367 205.727 604.235 205.428C602.695 201.936 601.091 198.469 598.674 195.476C587.557 181.717 573.067 176.664 555.838 179.222C549.112 180.22 542.768 182.732 536.645 185.717C536.117 185.972 535.756 186.569 535.342 186.983L535.344 186.984Z" fill="#533E2D"/>
<path d="M581.839 199.441C581.268 201.419 579.988 203.117 578.247 204.206C574.668 206.46 570.864 207.246 566.777 205.707C565.432 205.226 564.213 204.445 563.213 203.422C562.214 202.4 561.458 201.163 561.003 199.803C560.548 198.444 560.406 196.998 560.587 195.573C560.768 194.149 561.268 192.783 562.049 191.579C562.97 190.156 564.118 188.896 565.448 187.848C571.342 183.303 578.672 186.547 581.358 191.2C582.832 193.754 582.802 196.444 581.839 199.441ZM572.315 192.759C570.498 192.096 568.53 192.519 567.768 193.576C566.864 194.832 566.469 196.235 567.115 197.748C567.279 198.133 567.515 198.483 567.812 198.776C568.406 199.384 569.16 199.808 569.986 200.001C570.812 200.195 571.676 200.148 572.478 199.868C575.371 198.986 576.104 195.977 573.92 193.945C573.415 193.511 572.879 193.114 572.315 192.759Z" fill="#533E2D"/>
</g>
<path d="M-67.1689 -323.374C-54.0205 -296.466 -54.9372 -256.3 -57.2589 -242.945C-61.5248 -218.405 -76.9489 -183.396 -142.923 -135.317C-191.017 -100.268 -275.012 -55.3464 -313.986 -32.9175C-352.96 -10.4887 -345.959 -14.9181 -317.851 -25.6157C-289.744 -36.3134 -240.74 -53.1451 -210.052 -62.7018C-168.814 -75.5437 -146.364 -74.97 -102.252 -54.1384C-67.56 -37.7554 -13.8035 4.786 21.6466 33.2818C96.2739 93.2693 100.419 126.286 105.935 151.761C113.015 184.464 94.9981 197.908 69.9073 246.98C62.3868 261.689 57.2617 268.617 55.2818 271.328C51.1804 276.945 75.1752 243.759 120.49 198.78C151.386 168.113 203.14 128.111 230.352 105.333C266.045 75.4568 274.841 67.3344 281.889 66.8646C285.981 66.5919 290.492 72.596 314.287 104.112C338.081 135.628 380.862 194.096 405.233 228.202C429.605 262.308 434.272 270.281 463.123 309.381C491.973 348.48 544.865 418.465 576.78 459.39C608.694 500.315 618.028 510.059 667.562 558.045C717.095 606.03 745.108 627.728 902.38 645.938" stroke="#8A6735" stroke-width="12" stroke-linecap="round"/>
<rect x="59.5399" y="136.574" width="429" height="234.426" transform="rotate(3.12505 59.5399 136.574)" fill="white" stroke="#533E2D" stroke-width="12"/>
<circle cx="280.646" cy="86.1924" r="15" fill="#322217"/>
<path d="M903.305 638.156C900.172 638.156 897.039 638.156 849.218 634.133C801.397 630.11 708.983 622.065 584.233 619.776C459.483 617.488 305.197 621.202 208.487 625.9C111.777 630.598 77.3178 636.168 57.9995 639.347C38.6812 642.525 35.5485 643.144 36.6758 646.558C50.0071 686.923 96.3749 727.501 96.8021 735.931C97.2268 744.311 43.0005 741.942 -21.0298 739.448C-45.9221 738.478 -55.2995 736.953 -64.4484 738.791C-83.5724 742.633 -102.836 759.965 -121.418 775.578C-138.611 790.023 -133.783 808.164 -155.747 827.706C-174.74 844.603 -212.171 873.86 -275.775 917.942C-339.378 962.024 -428.66 1019.58 -499.323 1069.35C-499.323 1069.35 -626.177 1144.12 -663.342 1169.8C-700.507 1195.47 -777.274 1203.13 -792.119 1208.85" stroke="#8A6735" stroke-width="12" stroke-linecap="round"/>
<rect x="250.051" y="478.987" width="429" height="234.426" transform="rotate(-0.705248 250.051 478.987)" fill="#FFFD77" stroke="#533E2D" stroke-width="12"/>
</g>
<defs>
<clipPath id="clip0_228_112">
<rect width="763" height="853" fill="white"/>
</clipPath>
<clipPath id="clip1_228_112">
<rect width="83" height="80.7718" fill="white" transform="translate(111.913 500.1) rotate(-16.0755)"/>
</clipPath>
<clipPath id="clip2_228_112">
<rect width="83" height="48.4631" fill="white" transform="translate(537.745 161.794) rotate(17)"/>
</clipPath>
</defs>
</svg>
