<svg width="751" height="602" viewBox="0 0 751 602" fill="none" xmlns="http://www.w3.org/2000/svg">
<g clip-path="url(#clip0_233_117)">
<rect x="90.7578" y="137.365" width="547.586" height="299.227" transform="rotate(-8 90.7578 137.365)" fill="white" stroke="#533E2D" stroke-width="12"/>
<path d="M398.614 254.643C395.098 257.104 391.582 259.566 367.969 272.965C344.357 286.364 300.754 310.627 277.413 323.478C254.073 336.328 252.314 337.031 251.233 338.273C250.151 339.514 249.8 341.272 250.498 342.354C252.04 344.743 258.985 344.149 310.211 332.897C357.42 322.527 446.884 299.14 498.174 286.844C549.464 274.548 559.661 273.141 567.903 272.416C576.145 271.692 582.123 271.692 584.851 272.747C587.579 273.802 586.875 275.911 538.164 310.931C489.452 345.95 392.754 413.815 335.555 452.643C278.356 491.472 263.588 499.208 250.178 505.303C225.546 516.498 214.967 519.613 218.51 518.729C220.317 518.278 222.053 517.493 259.177 502.362C296.3 487.231 368.736 457.694 422.93 438.786C477.124 419.878 510.88 412.493 533.545 408.689C556.209 404.885 566.758 404.885 572.192 405.764C577.626 406.644 577.626 408.402 577.099 410.362C575.964 414.58 570.913 420.123 565.762 424.396C564.374 425.546 564.478 423.042 565.362 421.428C568.526 415.653 577.584 413.793 589.47 411.46C598.657 409.656 620.088 413.389 648.459 418.343C661.006 421.188 669.796 424.705 675.028 427.044C680.26 429.382 681.667 430.437 684.181 434.721" stroke="#8A6735" stroke-width="12" stroke-linecap="round"/>
<g clip-path="url(#clip1_233_117)" filter="url(#filter0_d_233_117)">
<rect width="210" height="50" transform="translate(97.0736 367.271) rotate(-8)" fill="#FFFD77"/>
<path d="M189.971 378.224C189.69 378.145 189.364 378.073 188.994 378.007C188.628 377.933 188.245 377.875 187.845 377.833C187.451 377.789 187.053 377.766 186.652 377.764C186.249 377.754 185.874 377.774 185.526 377.823C184.92 377.908 184.457 378.052 184.137 378.255C183.817 378.458 183.683 378.743 183.735 379.11C183.759 379.285 183.839 379.431 183.974 379.55C184.115 379.662 184.303 379.76 184.538 379.846C184.773 379.924 185.049 379.997 185.368 380.064C185.692 380.124 186.049 380.186 186.439 380.249L187.176 380.372C187.795 380.469 188.357 380.614 188.864 380.806C189.37 380.991 189.809 381.235 190.18 381.538C190.557 381.833 190.864 382.191 191.1 382.612C191.337 383.032 191.495 383.526 191.575 384.093C191.668 384.757 191.647 385.378 191.511 385.956C191.381 386.527 191.121 387.037 190.73 387.486C190.34 387.935 189.811 388.315 189.145 388.626C188.485 388.936 187.668 389.159 186.695 389.296C185.831 389.417 184.96 389.467 184.083 389.446C183.212 389.424 182.316 389.296 181.396 389.064L180.947 385.873C181.839 386.181 182.689 386.381 183.497 386.471C184.311 386.554 185.098 386.542 185.859 386.435C186.484 386.347 186.925 386.183 187.18 385.944C187.442 385.703 187.548 385.405 187.498 385.051C187.469 384.838 187.388 384.665 187.258 384.532C187.133 384.392 186.942 384.274 186.686 384.179C186.435 384.082 186.111 383.997 185.712 383.921C185.313 383.839 184.831 383.752 184.266 383.661C183.702 383.576 183.17 383.443 182.671 383.264C182.179 383.083 181.742 382.845 181.358 382.551C180.974 382.25 180.653 381.884 180.395 381.453C180.144 381.022 179.977 380.513 179.895 379.926C179.81 379.32 179.838 378.751 179.98 378.218C180.122 377.685 180.388 377.211 180.776 376.795C181.164 376.372 181.679 376.014 182.321 375.72C182.97 375.425 183.759 375.212 184.687 375.081C185.055 375.03 185.447 374.991 185.864 374.965C186.281 374.939 186.707 374.929 187.142 374.934C187.583 374.937 188.02 374.961 188.453 375.006C188.887 375.05 189.301 375.117 189.695 375.206L189.971 378.224ZM206.867 386.175L201.703 386.9L200.655 384.079L197.261 384.556L197.061 387.553L193.57 388.043L195.129 373.88L201.183 373.029L206.867 386.175ZM197.788 375.676L197.359 382.235L200.125 381.846L198.088 375.634L197.788 375.676ZM203.794 372.662L209.055 371.923L212.481 381.845L213.387 371.314L216.791 370.836L215.009 385.03L209.12 385.858L203.794 372.662ZM218.542 370.59L228.135 369.241L228.491 371.775L223.23 372.514L223.637 375.406L228.279 374.754L228.627 377.229L223.985 377.882L224.405 380.87L229.665 380.13L230.057 382.916L220.464 384.264L218.542 370.59Z" fill="#533E2D"/>
</g>
<g filter="url(#filter1_d_233_117)">
<rect width="210" height="50" transform="translate(90.7578 448.035) rotate(-8)" fill="#533E2D"/>
<path d="M166.763 464.745C166.608 463.643 166.665 462.625 166.935 461.693C167.211 460.754 167.644 459.93 168.235 459.223C168.825 458.509 169.545 457.924 170.395 457.469C171.245 457.015 172.172 456.717 173.178 456.575C173.881 456.477 174.606 456.444 175.354 456.477C176.101 456.51 176.861 456.653 177.633 456.906L177.468 460.085C176.857 459.855 176.264 459.702 175.688 459.625C175.111 459.548 174.591 459.542 174.127 459.608C173.566 459.686 173.076 459.851 172.658 460.1C172.238 460.343 171.898 460.66 171.638 461.052C171.377 461.444 171.198 461.899 171.1 462.419C171.009 462.939 171.007 463.511 171.095 464.136C171.183 464.761 171.342 465.311 171.573 465.785C171.811 466.258 172.108 466.646 172.467 466.951C172.825 467.256 173.24 467.47 173.711 467.595C174.181 467.713 174.697 467.732 175.258 467.653C175.722 467.588 176.22 467.439 176.753 467.207C177.286 466.974 177.814 466.663 178.338 466.274L179.372 469.284C178.699 469.734 178.007 470.071 177.296 470.296C176.585 470.527 175.879 470.692 175.176 470.791C174.17 470.932 173.197 470.905 172.255 470.708C171.313 470.506 170.461 470.149 169.699 469.638C168.936 469.121 168.293 468.452 167.77 467.631C167.253 466.809 166.917 465.847 166.763 464.745ZM180.361 455.832L184.694 455.223L186.224 466.112L190.866 465.46L191.258 468.245L182.283 469.506L180.361 455.832ZM191.492 454.268L201.086 452.919L201.442 455.453L196.181 456.193L196.587 459.084L201.229 458.432L201.577 460.907L196.935 461.56L197.355 464.548L202.616 463.809L203.007 466.594L193.414 467.942L191.492 454.268ZM217.919 464.498L212.755 465.224L211.708 462.403L208.314 462.88L208.113 465.876L204.622 466.367L206.182 452.203L212.236 451.352L217.919 464.498ZM208.841 453.999L208.411 460.558L211.177 460.17L209.14 453.957L208.841 453.999ZM217.748 450.578L223.898 449.713C224.872 449.576 225.748 449.585 226.525 449.739C227.302 449.886 227.965 450.135 228.514 450.485C229.068 450.828 229.508 451.246 229.834 451.739C230.159 452.226 230.359 452.737 230.434 453.272C230.493 453.691 230.509 454.113 230.483 454.537C230.457 454.955 230.363 455.363 230.202 455.76C230.04 456.151 229.793 456.521 229.46 456.87C229.134 457.212 228.696 457.513 228.148 457.775C228.27 458.034 228.458 458.349 228.714 458.721C228.971 459.092 229.263 459.492 229.593 459.919C229.922 460.346 230.274 460.786 230.646 461.24C231.019 461.694 231.383 462.132 231.739 462.556L226.787 463.252C226.422 462.665 226.04 462.006 225.641 461.273C225.242 460.533 224.89 459.718 224.588 458.827L223.35 459.001L224.002 463.643L219.67 464.252L217.748 450.578ZM223.78 456.732C224.27 456.663 224.674 456.54 224.991 456.364C225.315 456.187 225.568 455.981 225.752 455.745C225.936 455.508 226.055 455.255 226.109 454.984C226.169 454.713 226.181 454.448 226.145 454.19C226.073 453.681 225.944 453.275 225.757 452.973C225.57 452.67 225.341 452.446 225.071 452.3C224.799 452.147 224.498 452.062 224.167 452.042C223.835 452.023 223.486 452.039 223.118 452.091L222.393 452.193L223.045 456.835L223.78 456.732Z" fill="#FFFD77"/>
</g>
<path d="M57.9695 124.751L54.8839 102.874L62.4961 101.8C64.3733 101.535 66.0911 101.519 67.6492 101.752C69.2059 101.974 70.5633 102.461 71.7213 103.213C72.8882 103.953 73.8403 104.96 74.5775 106.234C75.3236 107.497 75.8247 109.036 76.0808 110.851C76.2757 112.233 76.3059 113.491 76.1713 114.625C76.0455 115.748 75.7778 116.758 75.3682 117.658C74.9688 118.556 74.4385 119.346 73.7774 120.028C73.125 120.699 72.3764 121.283 71.5314 121.781C70.6849 122.268 69.7525 122.668 68.734 122.98C67.7258 123.291 66.6544 123.526 65.5198 123.686L57.9695 124.751ZM64.2026 118.822L64.6668 118.757C65.4713 118.643 66.1935 118.468 66.8332 118.23C67.4715 117.983 67.9915 117.604 68.3931 117.095C68.805 116.585 69.078 115.91 69.2121 115.07C69.3565 114.229 69.3356 113.149 69.1494 111.829C68.9806 110.632 68.7268 109.653 68.3878 108.89C68.0474 108.118 67.622 107.526 67.1116 107.114C66.5997 106.692 66.005 106.428 65.3275 106.324C64.6486 106.209 63.8914 106.211 63.0559 106.329L62.4525 106.414L64.2026 118.822ZM91.5294 120.475C90.1782 120.666 88.9503 120.686 87.8457 120.537C86.7426 120.398 85.7472 120.128 84.8596 119.728C83.9809 119.315 83.2077 118.793 82.54 118.161C81.8812 117.518 81.3123 116.804 80.8335 116.019C80.3635 115.223 79.9805 114.372 79.6846 113.467C79.3989 112.561 79.1884 111.628 79.0531 110.668C78.9193 109.719 78.8849 108.767 78.95 107.811C79.0135 106.845 79.1817 105.911 79.4543 105.01C79.727 104.109 80.1115 103.255 80.6079 102.449C81.1044 101.642 81.7177 100.919 82.4481 100.28C83.1784 99.6404 84.0279 99.0998 84.9966 98.6582C85.9755 98.215 87.0839 97.9062 88.3216 97.7316C89.5594 97.557 90.7047 97.548 91.7578 97.7045C92.8211 97.8596 93.7921 98.1435 94.6709 98.5561C95.5599 98.9672 96.3545 99.4916 97.0545 100.129C97.7546 100.767 98.3603 101.481 98.8715 102.271C99.3931 103.06 99.8181 103.911 100.146 104.822C100.473 105.722 100.704 106.647 100.838 107.596C100.973 108.555 101.023 109.511 100.989 110.462C100.955 111.414 100.817 112.338 100.576 113.235C100.343 114.12 99.9936 114.963 99.5281 115.765C99.0612 116.557 98.4625 117.272 97.7322 117.912C97.0004 118.541 96.1185 119.076 95.0865 119.516C94.0663 119.965 92.8806 120.285 91.5294 120.475ZM85.9845 109.691C86.1591 110.929 86.3959 111.973 86.6949 112.825C87.0042 113.676 87.3632 114.356 87.7718 114.867C88.1908 115.376 88.6608 115.725 89.182 115.915C89.7134 116.103 90.2886 116.153 90.9075 116.066C91.5264 115.978 92.06 115.772 92.5084 115.445C92.9671 115.118 93.3274 114.651 93.5892 114.046C93.8614 113.44 94.0233 112.686 94.075 111.785C94.137 110.882 94.0807 109.811 93.9061 108.574C93.7316 107.336 93.4896 106.292 93.1803 105.441C92.8798 104.579 92.515 103.894 92.0857 103.386C91.6653 102.867 91.1887 102.508 90.6558 102.31C90.1331 102.11 89.5624 102.054 88.9435 102.141C88.3247 102.228 87.7866 102.441 87.3293 102.779C86.8823 103.116 86.5287 103.591 86.2683 104.207C86.0168 104.81 85.8608 105.569 85.8002 106.482C85.7485 107.383 85.81 108.453 85.9845 109.691ZM103.373 96.0348L110.072 95.0899L119.945 104.901L118.396 93.9159L123.687 93.1696L126.773 115.047L119.903 116.016L110.062 105.537L111.703 117.172L106.458 117.912L103.373 96.0348ZM133.241 96.4614C133.191 96.1107 133.082 95.8211 132.913 95.5924C132.744 95.3638 132.494 95.1939 132.163 95.0829C131.83 94.9615 131.406 94.9003 130.89 94.8994C130.373 94.8882 129.743 94.9349 129.001 95.0397L128.582 92.0691L130.067 91.8596C130.84 91.7505 131.622 91.7349 132.411 91.8129C133.201 91.8909 133.934 92.1294 134.611 92.5284C135.297 92.9155 135.89 93.5051 136.391 94.2971C136.891 95.0787 137.232 96.1194 137.415 97.419C137.641 99.0178 137.457 100.29 136.865 101.236C136.271 102.172 135.268 102.74 133.855 102.939C133.153 103.038 132.524 103.016 131.968 102.874C131.42 102.72 130.946 102.492 130.546 102.191C130.154 101.878 129.84 101.512 129.602 101.093C129.374 100.673 129.23 100.246 129.169 99.8129C129.109 99.39 129.124 98.9724 129.213 98.5601C129.302 98.1478 129.455 97.779 129.672 97.4539C129.888 97.1184 130.154 96.8389 130.469 96.6156C130.795 96.3908 131.16 96.25 131.562 96.1933C132.088 96.1191 132.647 96.2085 133.241 96.4614ZM146.097 112.321L143.723 95.4879L138.772 96.1862L138.061 91.1424L155.002 88.7529L155.714 93.7967L150.654 94.5103L153.029 111.344L146.097 112.321ZM168.865 86.7977L183.842 84.6854L184.414 88.739L176.368 89.8737L177.027 94.5462L184.083 93.5512L184.711 98.0071L177.656 99.0021L178.882 107.697L171.951 108.675L168.865 86.7977ZM200.235 105.143C198.884 105.334 197.656 105.355 196.551 105.205C195.448 105.066 194.453 104.796 193.565 104.396C192.686 103.983 191.913 103.461 191.245 102.829C190.587 102.186 190.018 101.472 189.539 100.687C189.069 99.8909 188.686 99.0402 188.39 98.1351C188.104 97.2287 187.894 96.2958 187.759 95.3365C187.625 94.3876 187.59 93.4351 187.655 92.4792C187.719 91.5129 187.887 90.5792 188.16 89.6782C188.432 88.7771 188.817 87.9233 189.313 87.117C189.81 86.3106 190.423 85.5876 191.153 84.9481C191.884 84.3086 192.733 83.768 193.702 83.3263C194.681 82.8831 195.789 82.5743 197.027 82.3997C198.265 82.2251 199.41 82.2161 200.463 82.3727C201.526 82.5278 202.497 82.8116 203.376 83.2242C204.265 83.6353 205.06 84.1597 205.76 84.7973C206.46 85.435 207.066 86.149 207.577 86.9395C208.098 87.7286 208.523 88.5786 208.852 89.4896C209.179 90.3903 209.409 91.3151 209.543 92.264C209.678 93.2233 209.729 94.1787 209.695 95.1303C209.661 96.0819 209.523 97.006 209.281 97.9028C209.048 98.7877 208.699 99.6312 208.233 100.433C207.767 101.225 207.168 101.941 206.438 102.58C205.706 103.209 204.824 103.744 203.792 104.184C202.772 104.633 201.586 104.953 200.235 105.143ZM194.69 94.3589C194.864 95.5967 195.101 96.6415 195.4 97.4935C195.71 98.3441 196.069 99.0246 196.477 99.535C196.896 100.044 197.366 100.393 197.887 100.583C198.419 100.771 198.994 100.821 199.613 100.734C200.232 100.647 200.765 100.44 201.214 100.114C201.673 99.7859 202.033 99.3195 202.295 98.7145C202.567 98.1081 202.729 97.3541 202.78 96.4527C202.842 95.5497 202.786 94.4794 202.611 93.2416C202.437 92.0039 202.195 90.9597 201.886 90.1092C201.585 89.2469 201.22 88.5619 200.791 88.0544C200.371 87.5351 199.894 87.1763 199.361 86.978C198.839 86.7781 198.268 86.7219 197.649 86.8092C197.03 86.8965 196.492 87.1091 196.035 87.4471C195.588 87.7837 195.234 88.2596 194.974 88.8749C194.722 89.4785 194.566 90.2368 194.506 91.1501C194.454 92.0516 194.515 93.1212 194.69 94.3589ZM212.078 80.7029L221.918 79.3151C223.476 79.0954 224.877 79.1082 226.121 79.3535C227.364 79.5884 228.425 79.9859 229.303 80.5458C230.19 81.0939 230.895 81.7625 231.416 82.5515C231.937 83.3303 232.257 84.1477 232.378 85.0038C232.472 85.6743 232.499 86.349 232.458 87.028C232.416 87.6968 232.266 88.3491 232.008 88.985C231.749 89.6107 231.354 90.2029 230.823 90.7618C230.3 91.3088 229.601 91.7915 228.723 92.2098C228.918 92.6241 229.221 93.1285 229.631 93.7229C230.041 94.3173 230.51 94.956 231.037 95.639C231.565 96.322 232.127 97.0264 232.724 97.7523C233.321 98.4781 233.904 99.1796 234.473 99.8568L226.551 100.974C225.966 100.036 225.355 98.981 224.716 97.8087C224.076 96.6261 223.513 95.3221 223.028 93.8967L221.048 94.176L222.095 101.603L215.164 102.58L212.078 80.7029ZM221.735 90.5445C222.519 90.4339 223.164 90.2377 223.671 89.9557C224.189 89.6723 224.595 89.3416 224.889 88.9635C225.182 88.5855 225.372 88.1799 225.459 87.747C225.555 87.3126 225.574 86.8891 225.516 86.4765C225.401 85.6617 225.194 85.0124 224.894 84.5287C224.595 84.0449 224.228 83.6863 223.796 83.4528C223.362 83.2089 222.879 83.0718 222.349 83.0414C221.819 83.011 221.26 83.0373 220.672 83.1202L219.511 83.2838L220.559 90.7103L221.735 90.5445ZM248.538 98.3306C247.403 98.4907 246.302 98.5145 245.234 98.4021C244.168 98.3 243.158 98.0743 242.204 97.7249C241.25 97.3756 240.364 96.9114 239.546 96.3325C238.738 95.7521 238.016 95.0702 237.379 94.2869C236.753 93.502 236.23 92.6239 235.809 91.6523C235.388 90.6808 235.096 89.6225 234.935 88.4776C234.699 86.8066 234.815 85.2387 235.281 83.7737C235.757 82.297 236.519 80.9851 237.566 79.8379C238.623 78.6789 239.934 77.7156 241.498 76.948C243.073 76.1788 244.845 75.6554 246.815 75.3775C247.878 75.2276 249.014 75.1516 250.223 75.1493C251.431 75.1367 252.653 75.2222 253.889 75.4056L253.597 80.4962C252.481 80.2644 251.474 80.1381 250.577 80.1174C249.678 80.0863 248.822 80.1283 248.007 80.2432C246.924 80.3959 245.971 80.6881 245.148 81.1198C244.324 81.5411 243.646 82.068 243.114 82.7005C242.583 83.333 242.207 84.0645 241.988 84.895C241.777 85.7137 241.738 86.5923 241.871 87.5309C242.018 88.5727 242.257 89.4857 242.588 90.2701C242.92 91.0544 243.352 91.6981 243.886 92.2014C244.42 92.7047 245.054 93.0572 245.787 93.2589C246.531 93.4591 247.382 93.4915 248.341 93.3562L250.322 93.0769L249.682 88.5436L246.282 89.4966L245.739 85.6441L255.146 84.3173L256.621 94.7763C255.921 95.3378 255.238 95.8235 254.57 96.2333C253.9 96.6328 253.233 96.9741 252.568 97.2573C251.902 97.5301 251.233 97.7506 250.563 97.9188C249.904 98.0959 249.229 98.2332 248.538 98.3306ZM258.571 74.1455L273.919 71.9808L274.491 76.0344L266.074 77.2215L266.727 81.8476L274.153 80.8002L274.712 84.761L267.285 85.8084L267.96 90.5892L276.376 89.4021L277.005 93.858L261.657 96.0227L258.571 74.1455ZM284.54 92.7953L282.165 75.9619L277.214 76.6602L276.503 71.6164L293.445 69.2269L294.156 74.2707L289.097 74.9843L291.471 91.8177L284.54 92.7953ZM312.853 88.802L310.479 71.9686L305.528 72.6669L304.817 67.623L321.758 65.2336L322.47 70.2774L317.41 70.991L319.785 87.8243L312.853 88.802ZM337.377 85.8006C336.026 85.9912 334.798 86.0119 333.694 85.8626C332.591 85.7236 331.595 85.4537 330.708 85.0529C329.829 84.6404 329.056 84.1182 328.388 83.4865C327.729 82.8431 327.16 82.1291 326.682 81.3445C326.212 80.5482 325.829 79.6975 325.533 78.7924C325.247 77.8859 325.036 76.9531 324.901 75.9938C324.767 75.0449 324.733 74.0924 324.798 73.1365C324.862 72.1702 325.03 71.2365 325.302 70.3355C325.575 69.4344 325.96 68.5806 326.456 67.7742C326.952 66.9679 327.566 66.2449 328.296 65.6054C329.026 64.9659 329.876 64.4253 330.845 63.9836C331.824 63.5404 332.932 63.2316 334.17 63.057C335.407 62.8824 336.553 62.8734 337.606 63.03C338.669 63.1851 339.64 63.4689 340.519 63.8815C341.408 64.2926 342.202 64.817 342.903 65.4546C343.603 66.0923 344.208 66.8063 344.72 67.5968C345.241 68.3859 345.666 69.2359 345.994 70.1469C346.321 71.0476 346.552 71.9724 346.686 72.9213C346.821 73.8806 346.871 74.836 346.837 75.7876C346.803 76.7392 346.665 77.6633 346.424 78.5601C346.191 79.445 345.842 80.2885 345.376 81.0905C344.909 81.8822 344.311 82.5979 343.58 83.2374C342.848 83.8666 341.967 84.4012 340.935 84.8413C339.914 85.2903 338.729 85.6101 337.377 85.8006ZM331.833 75.0162C332.007 76.254 332.244 77.2988 332.543 78.1508C332.852 79.0014 333.211 79.6819 333.62 80.1923C334.039 80.7013 334.509 81.0505 335.03 81.24C335.561 81.4281 336.137 81.4784 336.756 81.3912C337.374 81.3039 337.908 81.0971 338.356 80.7709C338.815 80.4432 339.175 79.9768 339.437 79.3718C339.709 78.7654 339.871 78.0114 339.923 77.11C339.985 76.207 339.929 75.1367 339.754 73.8989C339.58 72.6612 339.338 71.617 339.028 70.7665C338.728 69.9042 338.363 69.2192 337.934 68.7117C337.513 68.1924 337.037 67.8336 336.504 67.6352C335.981 67.4354 335.41 67.3792 334.792 67.4665C334.173 67.5538 333.635 67.7664 333.177 68.1044C332.73 68.441 332.377 68.9169 332.116 69.5322C331.865 70.1357 331.709 70.8941 331.648 71.8074C331.597 72.7088 331.658 73.7785 331.833 75.0162ZM360.268 59.8021L370.108 58.4143C371.665 58.1946 373.066 58.2074 374.311 58.4527C375.554 58.6877 376.614 59.0851 377.493 59.645C378.38 60.1931 379.084 60.8617 379.606 61.6508C380.126 62.4295 380.447 63.2469 380.567 64.103C380.662 64.7735 380.689 65.4482 380.648 66.1273C380.605 66.796 380.455 67.4483 380.198 68.0843C379.939 68.7099 379.544 69.3021 379.012 69.861C378.49 70.4081 377.79 70.8907 376.913 71.309C377.108 71.7233 377.411 72.2277 377.821 72.8221C378.231 73.4165 378.699 74.0552 379.227 74.7382C379.755 75.4212 380.317 76.1256 380.914 76.8515C381.51 77.5773 382.093 78.2788 382.662 78.956L374.741 80.0733C374.156 79.1353 373.544 78.0802 372.906 76.9079C372.265 75.7253 371.703 74.4213 371.218 72.9959L369.237 73.2753L370.285 80.7018L363.353 81.6794L360.268 59.8021ZM369.924 69.6437C370.708 69.5332 371.354 69.3369 371.861 69.055C372.379 68.7716 372.784 68.4408 373.078 68.0628C373.372 67.6847 373.562 67.2792 373.648 66.8462C373.745 66.4118 373.764 65.9883 373.706 65.5757C373.591 64.7609 373.384 64.1116 373.084 63.6279C372.784 63.1442 372.418 62.7855 371.985 62.552C371.551 62.3082 371.069 62.171 370.539 62.1406C370.008 62.1102 369.449 62.1365 368.861 62.2194L367.701 62.3831L368.748 69.8096L369.924 69.6437ZM382.81 56.6227L398.158 54.458L398.73 58.5117L390.313 59.6988L390.966 64.3248L398.392 63.2774L398.951 67.2382L391.524 68.2856L392.199 73.0665L400.615 71.8794L401.244 76.3353L385.896 78.5L382.81 56.6227ZM417.15 74.5494C416.016 74.7094 414.915 74.7332 413.847 74.6209C412.78 74.5188 411.77 74.2931 410.816 73.9437C409.862 73.5944 408.976 73.1302 408.158 72.5513C407.35 71.9709 406.628 71.289 405.992 70.5056C405.366 69.7208 404.842 68.8426 404.421 67.8711C404 66.8995 403.709 65.8413 403.547 64.6964C403.312 63.0254 403.427 61.4575 403.894 59.9925C404.369 58.5158 405.131 57.2039 406.179 56.0567C407.236 54.8977 408.546 53.9344 410.111 53.1667C411.685 52.3976 413.458 51.8741 415.428 51.5963C416.49 51.4464 417.626 51.3704 418.836 51.3681C420.044 51.3555 421.266 51.4409 422.501 51.6243L422.209 56.715C421.093 56.4832 420.086 56.3569 419.189 56.3362C418.291 56.3051 417.434 56.347 416.619 56.462C415.536 56.6147 414.583 56.9069 413.76 57.3385C412.936 57.7599 412.258 58.2868 411.727 58.9193C411.195 59.5518 410.82 60.2833 410.6 61.1137C410.39 61.9324 410.351 62.8111 410.483 63.7497C410.63 64.7915 410.869 65.7045 411.201 66.4888C411.532 67.2731 411.965 67.9169 412.499 68.4202C413.033 68.9235 413.666 69.276 414.399 69.4776C415.143 69.6778 415.994 69.7103 416.954 69.575L418.934 69.2957L418.295 64.7624L414.895 65.7154L414.351 61.8629L423.758 60.5361L425.233 70.9951C424.534 71.5566 423.85 72.0423 423.182 72.4521C422.513 72.8516 421.845 73.1929 421.181 73.476C420.514 73.7488 419.846 73.9694 419.175 74.1376C418.516 74.3147 417.841 74.4519 417.15 74.5494ZM427.184 50.3643L434.115 49.3867L437.201 71.2639L430.269 72.2415L427.184 50.3643ZM455.803 52.1189C455.354 51.9929 454.832 51.8771 454.239 51.7714C453.654 51.654 453.042 51.5616 452.401 51.4942C451.771 51.4253 451.134 51.3888 450.492 51.3847C449.848 51.3703 449.248 51.4024 448.691 51.4809C447.721 51.6177 446.981 51.8484 446.469 52.173C445.957 52.4977 445.743 52.954 445.826 53.5419C445.865 53.8204 445.993 54.0549 446.209 54.2453C446.434 54.4239 446.735 54.5813 447.112 54.7175C447.487 54.8434 447.93 54.9599 448.439 55.0668C448.958 55.162 449.529 55.2603 450.153 55.3616L451.333 55.5581C452.323 55.7131 453.223 55.9438 454.034 56.2502C454.844 56.5462 455.546 56.9364 456.14 57.4206C456.743 57.8931 457.234 58.4656 457.613 59.138C457.992 59.8104 458.246 60.6005 458.374 61.5082C458.524 62.5706 458.49 63.5641 458.273 64.4889C458.065 65.4019 457.649 66.218 457.025 66.9372C456.401 67.6565 455.555 68.2649 454.489 68.7624C453.434 69.2584 452.127 69.6163 450.57 69.8359C449.187 70.0309 447.794 70.1116 446.391 70.0782C444.997 70.0433 443.564 69.8404 442.092 69.4695L441.371 64.3638C442.798 64.8569 444.158 65.1753 445.451 65.319C446.753 65.451 448.013 65.4311 449.23 65.2594C450.23 65.1183 450.935 64.8559 451.344 64.4721C451.763 64.0869 451.932 63.6106 451.852 63.0433C451.804 62.703 451.676 62.4265 451.467 62.214C451.267 61.9897 450.962 61.8014 450.551 61.6489C450.151 61.495 449.632 61.3578 448.994 61.2373C448.355 61.1066 447.583 60.9682 446.679 60.8222C445.776 60.6865 444.926 60.4751 444.128 60.1879C443.34 59.8992 442.64 59.5194 442.026 59.0484C441.411 58.567 440.897 57.982 440.485 57.2933C440.082 56.6032 439.815 55.7888 439.683 54.8502C439.546 53.8806 439.591 52.9695 439.818 52.117C440.045 51.2644 440.469 50.5051 441.09 49.8388C441.71 49.1623 442.534 48.5885 443.562 48.1174C444.599 47.6449 445.861 47.3039 447.346 47.0945C447.934 47.0115 448.562 46.9493 449.229 46.9078C449.897 46.8662 450.578 46.849 451.273 46.8562C451.979 46.8618 452.679 46.8999 453.372 46.9704C454.066 47.0409 454.728 47.1474 455.358 47.2899L455.803 52.1189ZM466.52 67.1287L464.146 50.2953L459.195 50.9936L458.483 45.9498L475.425 43.5603L476.136 48.6041L471.077 49.3177L473.451 66.1511L466.52 67.1287ZM478.241 43.1631L493.589 40.9984L494.161 45.0521L485.744 46.2392L486.396 50.8653L493.823 49.8178L494.381 53.7786L486.955 54.8261L487.629 59.6069L496.046 58.4198L496.674 62.8757L481.326 65.0404L478.241 43.1631ZM498.648 40.2849L508.488 38.897C510.046 38.6773 511.447 38.6902 512.691 38.9354C513.934 39.1704 514.995 39.5678 515.873 40.1277C516.76 40.6758 517.465 41.3444 517.986 42.1335C518.507 42.9122 518.827 43.7297 518.948 44.5858C519.042 45.2562 519.069 45.931 519.028 46.61C518.986 47.2787 518.836 47.9311 518.578 48.567C518.319 49.1926 517.924 49.7849 517.393 50.3437C516.87 50.8908 516.171 51.3735 515.293 51.7918C515.488 52.2061 515.791 52.7104 516.201 53.3048C516.611 53.8992 517.08 54.5379 517.607 55.2209C518.135 55.9039 518.697 56.6084 519.294 57.3342C519.891 58.0601 520.474 58.7616 521.043 59.4388L513.121 60.556C512.536 59.6181 511.925 58.5629 511.286 57.3907C510.646 56.2081 510.083 54.9041 509.598 53.4787L507.618 53.758L508.665 61.1845L501.734 62.1621L498.648 40.2849ZM508.305 50.1264C509.089 50.0159 509.734 49.8196 510.241 49.5377C510.759 49.2543 511.165 48.9236 511.459 48.5455C511.752 48.1674 511.942 47.7619 512.029 47.329C512.125 46.8945 512.144 46.4711 512.086 46.0585C511.971 45.2436 511.764 44.5943 511.464 44.1106C511.165 43.6269 510.798 43.2683 510.366 43.0347C509.932 42.7909 509.449 42.6538 508.919 42.6234C508.389 42.593 507.83 42.6192 507.242 42.7021L506.081 42.8658L507.129 50.2923L508.305 50.1264ZM523.063 36.8414L529.994 35.8638L530.972 49.9591L526.021 50.6574L523.063 36.8414ZM529.677 58.6785C529.007 58.7731 528.407 58.7683 527.876 58.6643C527.357 58.5587 526.913 58.4003 526.547 58.189C526.189 57.9659 525.903 57.6907 525.689 57.3633C525.485 57.0344 525.357 56.6895 525.306 56.3284C525.254 55.9571 525.285 55.5845 525.401 55.2105C525.525 54.8248 525.733 54.4694 526.024 54.1443C526.313 53.809 526.694 53.5238 527.166 53.289C527.636 53.0438 528.196 52.8754 528.846 52.7837C529.496 52.6921 530.081 52.699 530.6 52.8045C531.119 52.8997 531.563 53.0633 531.932 53.2953C532.312 53.5257 532.609 53.8099 532.825 54.1476C533.05 54.4736 533.189 54.8222 533.241 55.1935C533.292 55.5545 533.26 55.9272 533.146 56.3115C533.041 56.684 532.842 57.0276 532.55 57.3423C532.256 57.6468 531.874 57.9216 531.404 58.1667C530.934 58.4119 530.358 58.5825 529.677 58.6785Z" fill="#A27035"/>
<path d="M683.831 434.626C696.98 461.534 696.063 501.7 693.741 515.055C689.475 539.595 674.051 574.604 608.077 622.683C559.983 657.732 475.988 702.654 437.014 725.082C398.04 747.511 405.041 743.082 433.149 732.384C461.256 721.687 510.26 704.855 540.948 695.298C582.186 682.456 604.636 683.03 648.748 703.862C683.44 720.245 737.197 762.786 772.647 791.282C847.274 851.269 851.419 884.286 856.935 909.761C864.015 942.464 845.998 955.908 820.907 1004.98C813.387 1019.69 808.262 1026.62 806.282 1029.33C802.18 1034.94 826.175 1001.76 871.49 956.78C902.386 926.113 954.14 886.111 981.352 863.333C1017.04 833.457 1025.84 825.334 1032.89 824.865C1036.98 824.592 1041.49 830.596 1065.29 862.112C1089.08 893.628 1131.86 952.096 1156.23 986.202C1180.61 1020.31 1185.27 1028.28 1214.12 1067.38C1242.97 1106.48 1295.87 1176.46 1327.78 1217.39C1359.69 1258.31 1369.03 1268.06 1418.56 1316.04C1468.1 1364.03 1496.11 1385.73 1653.38 1403.94" stroke="#8A6735" stroke-width="12" stroke-linecap="round"/>
<path d="M397.225 247.965C397.51 246.931 397.847 245.914 398.236 244.915C403.735 232.234 409.347 219.601 414.724 206.867C415.267 205.387 416.108 204.037 417.195 202.898C418.282 201.759 419.592 200.858 421.042 200.251C422.488 199.637 423.85 198.84 425.094 197.879C473.819 160.055 524.982 125.677 575.589 90.508C596.827 75.7484 617.498 60.1673 638.679 45.3219C646.721 39.685 655.387 34.9144 663.937 30.0467C668.564 27.4106 671.08 27.7476 674.54 31.4925C682.577 40.1904 690.544 48.9711 698.158 58.0402C703.118 63.9486 702.45 69.6128 696.365 74.4035C687.687 81.2346 678.681 87.6461 669.815 94.2373C668.865 94.9436 667.886 95.611 666.97 96.3686C634.411 123.443 599.574 147.43 564.95 171.672C540.041 189.115 514.473 205.618 489.271 222.646C482.072 227.511 475.082 232.686 468.062 237.809C457.904 245.364 446.058 250.313 433.557 252.221C424.012 253.663 414.54 255.615 404.975 256.874C398.898 257.681 396.049 254.194 397.225 247.965ZM639.548 60.8613C635.242 63.5546 631.155 65.9308 627.251 68.579C579.524 100.953 531.806 133.342 484.096 165.743C467.933 176.751 452.447 188.727 437.722 201.606C435.847 203.236 434.112 205.032 432.193 206.866L437.682 214.731C509.774 168.167 578.332 116.985 651.286 70.5757L639.548 60.8613ZM450.303 233.537C481.667 217.028 647.179 99.5008 661.446 83.5759L657.698 77.7068C655.947 78.7301 654.557 79.4425 653.265 80.3129C609.909 109.62 566.476 138.813 523.249 168.313C497.48 185.899 472.257 204.303 445.132 219.808C444.146 220.285 443.132 220.7 442.095 221.051L450.303 233.537ZM651.377 51.0312L671.776 75.8086L687.448 65.6539L668.527 41.2873L651.377 51.0312ZM420.773 215.252C418.904 220.207 417.466 223.654 416.342 227.202C415.965 228.481 416.041 229.851 416.556 231.08C418.234 234.621 420.214 238.017 422.232 241.758L434.64 238.709L420.773 215.252Z" fill="#221200"/>
</g>
<defs>
<filter id="filter0_d_233_117" x="97.0736" y="338.045" width="218.915" height="84.7397" filterUnits="userSpaceOnUse" color-interpolation-filters="sRGB">
<feFlood flood-opacity="0" result="BackgroundImageFix"/>
<feColorMatrix in="SourceAlpha" type="matrix" values="0 0 0 0 0 0 0 0 0 0 0 0 0 0 0 0 0 0 127 0" result="hardAlpha"/>
<feOffset dx="4" dy="6"/>
<feComposite in2="hardAlpha" operator="out"/>
<feColorMatrix type="matrix" values="0 0 0 0 0.655769 0 0 0 0 0.604411 0 0 0 0 0.313382 0 0 0 1 0"/>
<feBlend mode="normal" in2="BackgroundImageFix" result="effect1_dropShadow_233_117"/>
<feBlend mode="normal" in="SourceGraphic" in2="effect1_dropShadow_233_117" result="shape"/>
</filter>
<filter id="filter1_d_233_117" x="90.7578" y="418.809" width="218.915" height="84.7397" filterUnits="userSpaceOnUse" color-interpolation-filters="sRGB">
<feFlood flood-opacity="0" result="BackgroundImageFix"/>
<feColorMatrix in="SourceAlpha" type="matrix" values="0 0 0 0 0 0 0 0 0 0 0 0 0 0 0 0 0 0 127 0" result="hardAlpha"/>
<feOffset dx="4" dy="6"/>
<feComposite in2="hardAlpha" operator="out"/>
<feColorMatrix type="matrix" values="0 0 0 0 0.164706 0 0 0 0 0.129412 0 0 0 0 0.0980392 0 0 0 1 0"/>
<feBlend mode="normal" in2="BackgroundImageFix" result="effect1_dropShadow_233_117"/>
<feBlend mode="normal" in="SourceGraphic" in2="effect1_dropShadow_233_117" result="shape"/>
</filter>
<clipPath id="clip0_233_117">
<rect width="751" height="602" fill="white"/>
</clipPath>
<clipPath id="clip1_233_117">
<rect width="210" height="50" fill="white" transform="translate(97.0736 367.271) rotate(-8)"/>
</clipPath>
</defs>
</svg>
