<svg width="37" height="22" viewBox="0 0 37 22" fill="none" xmlns="http://www.w3.org/2000/svg">
<g clip-path="url(#clip0_247_17)">
<path d="M19.2084 0.029636C22.5545 0.123687 25.7564 0.862808 28.7322 2.41391C30.9188 3.545 32.9239 4.99978 34.6807 6.72966C35.203 7.27569 35.6958 7.84965 36.1568 8.44904C36.7259 9.14897 36.8215 10.0141 36.86 10.864C36.8543 11.2433 36.744 11.6136 36.5412 11.9335C34.6023 15.1778 32.0642 17.7713 28.5896 19.3752C23.675 21.6438 18.6367 22.1665 13.4386 20.543C9.62547 19.3515 6.06255 17.6516 2.92741 15.1187C2.0365 14.3988 1.23089 13.6051 0.668785 12.5975C0.450936 12.179 0.259887 11.7469 0.0968141 11.3039C-0.095295 10.8244 0.0226684 10.359 0.274559 9.94606C0.480575 9.62829 0.717628 9.33199 0.982225 9.06158C2.84667 7.04442 4.92533 5.23874 7.18105 3.67684C9.28751 2.22236 11.6605 1.20326 14.1621 0.678747C15.8164 0.32496 17.4871 -0.0441101 19.2084 0.029636ZM2.25942 11.0513C2.82234 12.0225 3.67608 12.6177 4.53161 13.2066C7.51681 15.262 10.7885 16.682 14.2745 17.6212C17.9421 18.6095 21.5452 18.3197 25.1159 17.1037C28.7166 15.8769 31.5276 13.5734 33.9416 10.7055C34.0111 10.6404 34.0602 10.5565 34.0832 10.4639C34.0922 10.2852 34.1271 10.0458 34.0318 9.93536C32.9203 8.64724 31.7847 7.37861 30.3641 6.41764C23.8314 2.00083 16.9958 1.73523 9.98434 5.07135C7.24715 6.3736 4.87012 8.27135 2.64899 10.3418C2.45688 10.5195 2.38078 10.8209 2.25863 11.0513H2.25942Z" fill="#533E2D"/>
<path d="M23.7041 10.302C23.7183 11.2197 23.394 12.1101 22.7938 12.8017C21.5616 14.2287 20.0427 15.0595 18.0994 14.9362C17.4633 14.9065 16.8423 14.7324 16.2827 14.4268C15.7232 14.1213 15.2397 13.6923 14.8686 13.1721C14.4975 12.6519 14.2484 12.054 14.1399 11.4231C14.0315 10.7923 14.0666 10.145 14.2426 9.52974C14.45 8.80326 14.7752 8.11617 15.2052 7.4962C17.1258 4.79049 20.6731 5.21803 22.4251 6.85165C23.3862 7.74813 23.7238 8.89903 23.7041 10.302ZM18.773 8.69483C17.912 8.6487 17.1282 9.08565 16.9411 9.63582C16.7191 10.289 16.734 10.9385 17.2063 11.4993C17.3263 11.6422 17.4729 11.7603 17.6377 11.8469C17.97 12.0283 18.3467 12.1112 18.7239 12.0858C19.1014 12.0605 19.4636 11.9281 19.769 11.7039C20.8872 10.9511 20.8074 9.57263 19.6118 8.99128C19.3398 8.87179 19.0595 8.77272 18.773 8.69483Z" fill="#533E2D"/>
</g>
<defs>
<clipPath id="clip0_247_17">
<rect width="37" height="21.604" fill="white"/>
</clipPath>
</defs>
</svg>
