<svg width="38" height="35" viewBox="0 0 38 35" fill="none" xmlns="http://www.w3.org/2000/svg">
<g clip-path="url(#clip0_128_140)">
<path d="M23.6887 34.1031C20.2564 34.1031 16.8241 34.0864 13.3921 34.1084C10.6327 34.1261 7.87466 34.2059 5.11565 34.2249C4.33943 34.2249 3.56428 34.1668 2.79672 34.0515C1.14332 33.8145 0.48548 32.8375 1.03609 31.2612C1.41261 30.2054 1.90465 29.1942 2.50326 28.2459C5.03948 24.1847 8.72973 21.5475 13.1523 19.8484C15.5533 18.9069 18.1051 18.406 20.6848 18.3697C24.5415 18.3363 28.092 19.3128 31.1239 21.8509C33.1937 23.5599 34.8854 25.6789 36.0917 28.0735C36.4275 28.7428 36.8058 29.3965 37.0748 30.0919C37.333 30.734 37.5135 31.4046 37.6126 32.0892C37.7451 33.115 37.1722 33.7951 36.1457 33.9241C35.4296 34.0212 34.7081 34.0751 33.9852 34.0858C30.5531 34.1014 27.1207 34.0931 23.6887 34.0931V34.1031ZM34.9644 31.5996C34.9777 31.4904 34.9766 31.3801 34.9611 31.2712C33.8679 28.439 32.3573 25.8792 30.0235 23.874C28.223 22.3272 26.2034 21.214 23.8044 20.9121C21.0399 20.5644 18.3006 20.6372 15.5986 21.3967C10.4866 22.8336 6.40798 25.662 3.61495 30.2218C3.29716 30.7404 3.0449 31.2989 2.75266 31.8557C2.84148 31.9041 2.93415 31.9452 3.02971 31.9787C3.98606 32.1884 4.93975 32.065 5.90426 32.0112C7.90869 31.8991 9.91862 31.851 11.9265 31.8407C18.4955 31.8069 25.0646 31.8094 31.6336 31.7781C32.727 31.7723 33.8187 31.6635 34.9649 31.5996H34.9644Z" fill="#F2F7BF"/>
<path d="M19.9428 0.802637C22.5872 0.738379 24.7965 1.99756 26.4739 4.28599C26.8693 4.82554 27.3464 5.32647 27.6352 5.91824C28.2805 7.24093 28.8151 8.59971 28.4721 10.1435C28.15 11.5931 27.7302 12.989 26.7945 14.1772C25.1306 16.2879 23.0092 17.5929 20.298 17.9173C17.8576 18.2095 15.5371 17.8488 13.3706 16.7032C11.1392 15.5235 9.86955 13.6144 9.40862 11.1615C8.71487 7.46889 10.6513 4.15717 13.7066 2.39641C15.5555 1.33059 17.552 0.793413 19.9428 0.802637ZM25.737 8.30472C25.8582 7.37384 25.4848 6.63041 24.9061 5.95296C24.6803 5.68858 24.4762 5.40496 24.2412 5.14933C23.3905 4.22407 22.4205 3.49208 21.1302 3.29837C19.3213 2.99971 17.4642 3.24257 15.7938 3.99628C13.7058 4.95421 12.1482 6.41464 11.7893 8.843C11.3707 11.6758 12.8361 14.211 15.4423 15.0479C17.0039 15.5349 18.6529 15.6779 20.2755 15.4672C22.4934 15.214 25.1043 12.9394 25.4569 10.6049C25.5721 9.84127 25.6448 9.07114 25.737 8.30395V8.30472Z" fill="#F2F7BF"/>
</g>
<defs>
<clipPath id="clip0_128_140">
<rect width="37" height="33.6144" fill="white" transform="translate(0.771301 0.692871)"/>
</clipPath>
</defs>
</svg>
